<svg width="190" height="69" viewBox="0 0 190 69" fill="none" xmlns="http://www.w3.org/2000/svg">
<path d="M42.2665 15.397C40.4346 12.9269 37.9627 11.0064 35.1189 9.84369C31.9238 8.51905 28.4921 7.86288 25.0346 7.91546C22.8449 7.90997 20.662 8.15974 18.5298 8.65975C17.8885 6.6423 16.5936 4.89697 14.8502 3.70034C14.9944 3.30585 15.0465 2.88353 15.0027 2.46573C14.9589 2.04793 14.8202 1.64572 14.5973 1.28989C14.3744 0.93406 14.0732 0.634049 13.7168 0.412824C13.3603 0.191599 12.9581 0.055027 12.5408 0.0135627C12.0837 -0.0320373 11.6224 0.0377698 11.199 0.216618C10.7757 0.395465 10.4037 0.677662 10.1172 1.03747C9.8306 1.39728 9.63849 1.82325 9.55837 2.27652C9.47825 2.7298 9.51267 3.19597 9.65848 3.6325C9.8043 4.06903 10.0569 4.46204 10.3932 4.77568C10.7295 5.08932 11.1388 5.31362 11.5838 5.4281C12.0288 5.54259 12.4953 5.54363 12.9408 5.43113C13.3863 5.31862 13.7966 5.09615 14.1343 4.78401C14.6798 5.15442 15.1787 5.58949 15.62 6.07978C16.375 6.91927 16.9396 7.91256 17.2751 8.99141C16.4447 9.23113 15.6286 9.51826 14.831 9.8514C11.9321 10.9839 9.40607 12.9045 7.53716 15.397C5.75637 17.8266 4.86597 20.7279 4.86597 24.101C4.86597 27.3945 5.75637 30.2354 7.53716 32.6238C9.41776 35.0855 11.9348 36.9846 14.8156 38.1154C18.0609 39.4299 21.5344 40.0854 25.0346 40.0437C28.4919 40.0943 31.9232 39.4382 35.1189 38.1154C37.9494 36.9594 40.4179 35.0628 42.2665 32.6238C44.0499 30.2328 44.9403 27.3919 44.9377 24.101C44.9377 20.7331 44.0473 17.8317 42.2665 15.397ZM12.6794 3.98958C12.6794 3.98958 12.6794 3.98958 12.7025 3.98958H12.6794ZM39.3836 30.5992C38.0991 32.4505 36.3362 33.9169 34.2837 34.8413C32.0216 35.8567 29.5646 36.3623 27.0861 36.3222C24.5785 36.3553 22.0929 35.8504 19.7962 34.8413C17.7043 33.9385 15.905 32.4695 14.6 30.5992C13.2937 28.6531 12.6214 26.3493 12.6755 24.0046C12.6168 21.6161 13.2883 19.2666 14.6 17.2712C15.8918 15.3757 17.6935 13.8861 19.7962 12.9751C22.0929 11.966 24.5785 11.4611 27.0861 11.4943C29.5646 11.4542 32.0216 11.9597 34.2837 12.9751C36.347 13.9078 38.1123 15.3948 39.3836 17.2712C40.6886 19.2688 41.3533 21.6181 41.2889 24.0046C41.3495 26.3485 40.6839 28.6537 39.3836 30.603V30.5992Z" fill="white"/>
<path d="M3.18771 24.3646C3.18771 24.3029 3.18771 24.245 3.18771 24.1833C3.18771 24.1216 3.18771 24.1409 3.18771 24.1178C3.1835 23.823 3.19507 23.5282 3.22236 23.2346C3.28162 22.1188 3.44528 21.011 3.71117 19.9258C2.79149 20.0945 1.95788 20.5756 1.35062 21.2879C0.743361 22.0002 0.399509 22.9004 0.376921 23.8369C0.354332 24.7734 0.654387 25.6892 1.2266 26.4301C1.79881 27.1709 2.60825 27.6917 3.51873 27.9048C3.29061 26.7388 3.17972 25.5528 3.18771 24.3646Z" fill="white"/>
<path d="M46.1876 22.2305C46.2656 22.9386 46.3041 23.6506 46.3031 24.3631C46.3066 25.461 46.21 26.5569 46.0144 27.6372C46.6485 27.5419 47.2292 27.2268 47.6554 26.7468C48.0816 26.2667 48.3262 25.6522 48.3468 25.01C48.3674 24.3679 48.1626 23.7389 47.7681 23.2324C47.3736 22.7259 46.8143 22.3741 46.1876 22.2382V22.2305Z" fill="white"/>
<path d="M38.6744 39.0361C38.6551 40.0773 38.6744 39.9848 38.2895 43.2782C37.9854 45.8003 35.6298 56.9802 28.3552 59.7993C27.8664 59.9882 24.3292 61.0758 20.8035 59.5756C13.91 56.6601 11.6006 48.0564 11.031 44.8015C10.4998 41.6932 10.3151 39.9462 10.3074 38.5039C11.9207 39.3666 13.6066 40.0854 15.3457 40.652C18.4986 41.6752 21.7925 42.1958 25.1067 42.1945C28.2959 42.2063 31.4678 41.7237 34.5098 40.7638C35.9406 40.297 37.333 39.7193 38.6744 39.0361Z" fill="white"/>
<path d="M104.406 52.4188C103.594 51.5466 102.902 50.5701 102.347 49.5149H100.638C99.8314 49.5127 99.0353 49.3337 98.3053 48.9905C97.6697 48.6274 97.1427 48.1005 96.7792 47.4643C96.4158 46.8282 96.229 46.1061 96.2384 45.3731C96.2384 36.9326 96.2384 28.4882 96.2384 20.04C96.2384 19.4135 96.1152 18.7932 95.8759 18.2144C95.6367 17.6356 95.286 17.1097 94.8438 16.6668C94.4017 16.2238 93.8769 15.8724 93.2992 15.6327C92.7215 15.3929 92.1024 15.2695 91.4772 15.2695H90.2147C90.15 15.2695 90.088 15.295 90.0419 15.3405C89.9958 15.3859 89.9694 15.4477 89.9684 15.5125V44.5902C89.9455 46.4141 90.3866 48.2138 91.2501 49.8196C92.0852 51.3744 93.3317 52.6687 94.8527 53.5604C96.4886 54.5078 98.3522 54.988 100.241 54.9487H107.601C106.413 54.2731 105.336 53.42 104.406 52.4188Z" fill="white"/>
<path d="M64.7754 54.6873V54.159C64.7754 53.544 64.8964 52.9351 65.1315 52.367C65.3666 51.799 65.7112 51.2829 66.1456 50.8485C66.5799 50.414 67.0955 50.0696 67.6628 49.8349C68.2302 49.6003 68.8381 49.4801 69.4519 49.4811L78.6471 49.5004C79.2801 49.4525 79.8937 49.2599 80.4407 48.9373C80.7709 48.7471 81.0653 48.5004 81.3106 48.2084C81.4279 48.0642 81.5335 47.9107 81.6262 47.7495C81.9028 47.2827 82.0491 46.7499 82.0496 46.2069C82.0662 45.6547 81.9332 45.1083 81.6647 44.6258C81.3943 44.1635 81.0048 43.7825 80.537 43.5228C80.0206 43.2318 79.4357 43.0853 78.8434 43.0986H73.1854C71.5041 43.1306 69.8337 42.8223 68.2741 42.1924C66.8866 41.6268 65.7048 40.6499 64.887 39.3926C64.0595 38.1315 63.6438 36.5349 63.6438 34.6144C63.6276 33.1203 64.0275 31.6513 64.7985 30.3723C65.569 29.0906 66.6457 28.0211 67.9315 27.2601C69.2891 26.4609 70.8414 26.055 72.4156 26.0878H85.6176C85.6387 26.0878 85.6595 26.092 85.6789 26.1002C85.6983 26.1084 85.7159 26.1203 85.7306 26.1354C85.7453 26.1505 85.7568 26.1684 85.7645 26.1881C85.7722 26.2077 85.7759 26.2287 85.7754 26.2497V26.8321C85.7754 28.0727 85.2835 29.2626 84.4079 30.1398C83.5324 31.0171 82.3448 31.51 81.1066 31.51H73.3509C73.0159 31.5065 72.6819 31.548 72.3579 31.6334C72.0535 31.7159 71.761 31.8378 71.488 31.9959C71.2663 32.124 71.0598 32.2766 70.8722 32.4509C70.6042 32.709 70.3909 33.0186 70.2453 33.3612C70.0997 33.7038 70.0246 34.0723 70.0246 34.4447C70.0246 34.8171 70.0997 35.1857 70.2453 35.5283C70.3909 35.8709 70.6042 36.1805 70.8722 36.4385C71.1713 36.7265 71.526 36.9503 71.9145 37.0962C72.303 37.2421 72.7171 37.307 73.1315 37.2869H78.6086C80.4236 37.2395 82.2289 37.5664 83.9125 38.2472C85.3082 38.8296 86.4843 39.8392 87.2727 41.1318C88.0425 42.4173 88.4274 44.0396 88.4274 45.9987C88.4347 47.5578 88.0253 49.0904 87.2419 50.4375C86.4673 51.7984 85.3481 52.9304 83.9972 53.7193C82.5834 54.5398 80.9735 54.9597 79.3399 54.9341H65.0217C64.9894 54.9341 64.9573 54.9277 64.9274 54.9153C64.8976 54.9029 64.8704 54.8847 64.8475 54.8618C64.8247 54.8389 64.8065 54.8117 64.7941 54.7817C64.7817 54.7518 64.7754 54.7197 64.7754 54.6873Z" fill="white"/>
<path d="M132.104 54.9323V38.685C132.063 36.4118 132.635 34.1696 133.759 32.1946C134.871 30.2969 136.495 28.7518 138.444 27.7365C140.638 26.6027 143.08 26.0354 145.549 26.0859C148.016 26.0289 150.457 26.5967 152.646 27.7365C154.587 28.7632 156.202 30.3143 157.307 32.2139C158.43 34.1895 159.002 36.4312 158.963 38.7043V54.9516H152.673V38.7544C152.691 37.8036 152.519 36.8587 152.166 35.9759C151.813 35.0931 151.287 34.2902 150.618 33.6149C149.95 32.9395 149.153 32.4054 148.275 32.0442C147.397 31.683 146.456 31.502 145.507 31.512C144.279 31.5054 143.072 31.8205 142.004 32.426C140.927 33.0247 140.031 33.9025 139.41 34.9674C138.75 36.118 138.416 37.4275 138.444 38.7544V54.9516L132.104 54.9323Z" fill="white"/>
<path d="M122.738 46.0739C122.158 46.9575 121.409 47.7166 120.533 48.3068C119.295 49.119 117.84 49.5359 116.36 49.5023C114.83 49.5511 113.32 49.1343 112.03 48.3068C110.837 47.4981 109.889 46.3742 109.294 45.0596C108.662 43.6207 108.335 42.0657 108.335 40.4936C108.335 38.9214 108.662 37.3665 109.294 35.9275C109.907 34.5649 110.913 33.4165 112.181 32.6293C113.449 31.8421 114.923 31.4517 116.414 31.508C117.903 31.4658 119.368 31.8847 120.61 32.7074C121.784 33.5083 122.721 34.6113 123.323 35.9005C123.905 37.1529 124.224 38.5112 124.262 39.892H124.282V54.9013H130.571C130.571 50.0833 130.571 45.2679 130.571 40.455C130.604 37.9304 130.02 35.436 128.87 33.1894C127.761 31.0382 126.071 29.2424 123.993 28.0064C121.891 26.7209 119.349 26.0781 116.364 26.0781C113.38 26.0781 110.783 26.7209 108.574 28.0064C106.455 29.2315 104.722 31.0271 103.57 33.1894C102.378 35.4625 101.774 37.9993 101.815 40.5669C101.788 43.0542 102.314 45.5163 103.355 47.7746C104.319 49.8811 105.839 51.6839 107.75 52.9885C109.765 54.3113 112.136 54.9842 114.544 54.9167C116.056 54.9502 117.56 54.6747 118.962 54.1069C120.152 53.6135 121.233 52.8886 122.142 51.9743C122.353 51.7583 122.55 51.5423 122.738 51.3225V46.0739Z" fill="white"/>
<path d="M187.814 33.1935C186.664 30.9997 184.908 29.1832 182.757 27.9603C180.589 26.7185 178.023 26.0977 175.059 26.0977C171.959 26.0977 169.335 26.7404 167.188 28.0259C165.086 29.2539 163.371 31.0484 162.238 33.2051C161.066 35.4804 160.475 38.011 160.517 40.571C160.467 43.1676 161.058 45.7364 162.238 48.0486C163.314 50.1453 164.952 51.9001 166.968 53.116C169.037 54.3394 171.403 54.9654 173.804 54.9247C175.093 54.9386 176.376 54.7446 177.603 54.3501C178.715 53.9802 179.756 53.4248 180.682 52.7073C181.025 52.4373 181.36 52.1404 181.687 51.8318C181.713 51.8093 181.733 51.7815 181.747 51.7502C181.761 51.7189 181.768 51.6849 181.768 51.6506V46.0664C181.047 47.1585 180.059 48.0474 178.898 48.6482C177.737 49.2491 176.442 49.5419 175.136 49.4987C173.604 49.5388 172.095 49.1198 170.802 48.2955C169.602 47.5008 168.641 46.3926 168.023 45.0907C167.358 43.6934 167.022 42.1615 167.041 40.6134C167.014 39.0162 167.35 37.4336 168.023 35.9856C168.644 34.6591 169.614 33.5272 170.829 32.7115C172.12 31.8648 173.639 31.4341 175.182 31.4774C176.734 31.4328 178.263 31.8618 179.566 32.7076C180.786 33.5288 181.757 34.671 182.372 36.0088C182.94 37.238 183.266 38.566 183.33 39.9192H183.353V54.9594V57.3774C183.381 58.1827 183.097 58.9675 182.561 59.5679C182.278 59.8668 181.933 60.1003 181.551 60.2522C181.169 60.404 180.758 60.4706 180.347 60.4472H171.333C170.006 60.4472 168.733 60.9754 167.795 61.9156C166.857 62.8558 166.329 64.1309 166.329 65.4606V65.5647C166.329 65.5974 166.335 65.6299 166.347 65.6603C166.359 65.6907 166.377 65.7184 166.4 65.7417C166.423 65.765 166.45 65.7836 166.481 65.7962C166.511 65.8089 166.543 65.8154 166.576 65.8154H181.471C183.989 65.8154 185.976 65.0839 187.433 63.621C188.891 62.1582 189.62 60.1682 189.62 57.6512V41.0684C189.685 38.3335 189.064 35.6259 187.814 33.1935Z" fill="white"/>
<path d="M39.3836 25.733C39.3271 25.9249 39.1983 26.0873 39.0245 26.1859C38.8507 26.2844 38.6455 26.3115 38.4521 26.2613L37.486 25.8756C36.6046 27.0673 35.2729 27.8617 33.9142 28.417C30.4485 29.7793 26.6109 29.8545 23.0947 28.6292C20.8584 27.8193 18.4066 26.161 18.1949 23.6852L16.409 23.9513C16.2157 24.0015 16.0104 23.9744 15.8366 23.8758C15.6628 23.7773 15.5341 23.6149 15.4776 23.4229C15.4286 23.2298 15.4561 23.0251 15.5544 22.8518C15.6527 22.6786 15.8142 22.5502 16.0049 22.4935L21.8207 21.6297C22.0146 21.5757 22.2219 21.6 22.3981 21.6973C22.5744 21.7946 22.7056 21.9572 22.7637 22.1503C22.8127 22.3435 22.7851 22.5481 22.6868 22.7214C22.5885 22.8947 22.4271 23.0231 22.2364 23.0797L19.6845 23.4654C19.7191 24.3601 20.3119 25.1622 20.9816 25.7522C23.214 27.7036 26.6704 28.1278 29.5071 27.9041C31.6856 27.7306 34.5108 27.0596 36.0504 25.2856L34.3068 24.576C34.1161 24.5194 33.9546 24.391 33.8563 24.2177C33.758 24.0444 33.7305 23.8398 33.7795 23.6466C33.8344 23.4566 33.9601 23.295 34.1306 23.1952C34.3011 23.0955 34.5034 23.0652 34.6955 23.1106L38.8678 24.8035C39.0564 24.8626 39.2151 24.992 39.3111 25.165C39.4071 25.338 39.4331 25.5413 39.3836 25.733Z" fill="white"/>
</svg>
