<svg width="190" height="190" viewBox="0 0 190 190" fill="none" xmlns="http://www.w3.org/2000/svg">
<path d="M120.542 47.1323C120.445 47.4741 120.217 47.7639 119.907 47.9392C119.598 48.1145 119.233 48.1614 118.889 48.0697L117.167 47.373C115.596 49.482 113.234 50.8943 110.833 51.876C104.676 54.2895 97.8582 54.422 91.6115 52.2497C87.6405 50.8183 83.2832 47.8797 82.9095 43.4843L79.7429 43.953C79.4005 44.04 79.0377 43.9918 78.7299 43.8185C78.4221 43.6451 78.1929 43.3599 78.0899 43.022C77.9981 42.6786 78.045 42.3129 78.2203 42.0037C78.3956 41.6945 78.6854 41.4666 79.0272 41.369L89.3568 39.8427C89.7001 39.7559 90.0635 39.805 90.3714 39.9796C90.6794 40.1542 90.9081 40.4409 91.0098 40.78C91.1011 41.1251 91.0525 41.4923 90.8746 41.8018C90.6968 42.1113 90.404 42.3381 90.0598 42.433L85.4998 43.098C85.5632 44.6877 86.6145 46.1063 87.8115 47.1513C91.7762 50.6157 97.9132 51.3693 102.955 50.9513C106.824 50.641 111.821 49.4567 114.557 46.309L111.467 45.0423C111.128 44.9392 110.843 44.7103 110.668 44.4027C110.494 44.0952 110.444 43.7325 110.529 43.3893C110.576 43.22 110.656 43.0616 110.764 42.9231C110.872 42.7846 111.006 42.6688 111.159 42.5823C111.312 42.4959 111.481 42.4404 111.655 42.4191C111.83 42.3978 112.007 42.4112 112.176 42.4583L119.586 45.454C119.932 45.5545 120.226 45.786 120.404 46.0993C120.583 46.4126 120.632 46.7832 120.542 47.1323Z" fill="white"/>
<path d="M125.628 28.8477C122.38 24.4783 118 21.0795 112.961 19.0184C107.293 16.6792 101.207 15.524 95.0758 15.6237C91.1827 15.5946 87.2994 16.0197 83.5048 16.8904C82.3692 13.3176 80.0734 10.2261 76.9815 8.10605C77.1775 7.57475 77.2783 7.01303 77.2791 6.44671C77.2766 5.33019 76.89 4.24854 76.1843 3.38334C75.4786 2.51814 74.4967 1.92207 73.4034 1.69521C72.3102 1.46836 71.1722 1.62452 70.1805 2.13748C69.1888 2.65045 68.4037 3.48898 67.9571 4.51231C67.5106 5.53563 67.4297 6.68144 67.728 7.75737C68.0263 8.8333 68.6857 9.77384 69.5955 10.4211C70.5053 11.0683 71.61 11.3829 72.7243 11.3119C73.8385 11.241 74.8945 10.7888 75.7148 10.0314C76.6816 10.6874 77.5662 11.4571 78.3495 12.324C79.6848 13.8103 80.6848 15.5663 81.2818 17.473C79.8057 17.8986 78.3551 18.4082 76.9371 18.9994C71.8018 21.0166 67.3315 24.4274 64.0298 28.8477C60.8716 33.1502 59.2904 38.2865 59.2861 44.2567C59.2861 50.0918 60.8674 55.1205 64.0298 59.3427C67.364 63.7009 71.8278 67.063 76.9371 69.0644C82.6951 71.383 88.8564 72.5348 95.0631 72.4527C101.193 72.5507 107.279 71.3978 112.948 69.0644C117.964 67.0144 122.338 63.6573 125.615 59.3427C128.769 55.1205 130.348 50.0918 130.352 44.2567C130.361 38.2865 128.786 33.1502 125.628 28.8477ZM73.1498 8.63805C73.1498 8.63805 73.1498 8.63805 73.1815 8.63805H73.1498ZM120.51 55.7327C118.234 59.0174 115.108 61.6223 111.466 63.2694C107.454 65.0574 103.097 65.9437 98.7048 65.8661C94.2542 65.9249 89.8424 65.0309 85.7658 63.2441C82.0593 61.6395 78.8697 59.0396 76.5508 55.7327C74.244 52.2851 73.0624 48.2072 73.1688 44.0604C73.1688 39.437 74.2961 35.4639 76.5508 32.1411C78.8443 28.7894 82.0389 26.1547 85.7658 24.541C89.8424 22.7542 94.2542 21.8602 98.7048 21.919C103.1 21.8533 107.456 22.7527 111.466 24.5537C115.125 26.2041 118.255 28.8345 120.51 32.1537C122.765 35.4808 123.892 39.4539 123.892 44.073C123.996 48.2156 122.815 52.2887 120.51 55.7327Z" fill="white"/>
<path d="M56.3156 44.7088C56.3156 44.6011 56.3156 44.4935 56.3156 44.3921C56.3125 44.3521 56.3125 44.3119 56.3156 44.2718C56.3032 43.7519 56.3201 43.2318 56.3663 42.7138C56.4706 40.7381 56.7611 38.7766 57.2339 36.8555C55.6007 37.1525 54.1201 38.0043 53.0423 39.2668C51.9644 40.5293 51.3554 42.1252 51.3182 43.7848C51.281 45.4444 51.8178 47.066 52.8379 48.3756C53.8581 49.6852 55.299 50.6025 56.9173 50.9725C56.5066 48.9101 56.3051 46.8116 56.3156 44.7088Z" fill="white"/>
<path d="M132.582 40.9336C132.718 42.1956 132.786 43.4642 132.784 44.7336C132.791 46.6769 132.619 48.6166 132.271 50.5286C133.406 50.3711 134.449 49.8176 135.215 48.966C135.981 48.1144 136.421 47.0194 136.459 45.8745C136.496 44.7296 136.127 43.6084 135.418 42.7089C134.708 41.8094 133.704 41.1896 132.582 40.9589V40.9336Z" fill="white"/>
<path d="M119.25 70.6859C119.25 72.5289 119.25 72.3579 118.547 78.2035C118.009 82.6369 113.835 102.46 100.928 107.451C100.066 107.78 93.79 109.706 87.539 107.058C75.322 101.878 71.2117 86.6522 70.2237 80.8889C69.28 75.3852 68.957 72.2945 68.957 69.7422C71.8173 71.2666 74.8053 72.5381 77.887 73.5422C83.4799 75.3547 89.3232 76.2758 95.2024 76.2719C100.861 76.2963 106.488 75.4417 111.884 73.7385C114.415 72.9126 116.877 71.892 119.25 70.6859Z" fill="white"/>
<path d="M62.029 168.569C60.8269 167.274 59.8005 165.826 58.9763 164.262H56.443C55.2474 164.263 54.0664 163.999 52.985 163.49C52.4673 163.198 51.9973 162.828 51.5916 162.394C50.4953 161.251 49.8963 159.721 49.926 158.138C49.926 145.636 49.926 133.136 49.926 120.638C49.926 118.764 49.1813 116.966 47.8558 115.64C46.5303 114.315 44.7325 113.57 42.858 113.57H40.958C40.91 113.57 40.8626 113.58 40.8183 113.598C40.7741 113.617 40.734 113.644 40.7004 113.678C40.6668 113.712 40.6404 113.753 40.6226 113.798C40.6048 113.842 40.5961 113.89 40.597 113.938V157.004C40.5629 159.704 41.2168 162.367 42.497 164.744C43.7389 167.045 45.5876 168.961 47.8423 170.285C50.2746 171.69 53.0459 172.4 55.854 172.337H66.7726C65.0095 171.329 63.41 170.058 62.029 168.569Z" fill="white"/>
<path d="M3.25508 171.943V171.158C3.2559 170.245 3.43699 169.342 3.78793 168.499C4.13888 167.657 4.65277 166.892 5.3001 166.249C5.94744 165.606 6.71546 165.097 7.56006 164.751C8.40466 164.406 9.3092 164.23 10.2218 164.235H23.8511C24.7922 164.169 25.705 163.885 26.5174 163.406C26.998 163.119 27.4263 162.753 27.7841 162.323C27.9602 162.114 28.1171 161.889 28.2528 161.651C28.6609 160.967 28.8796 160.187 28.8861 159.39C28.9044 158.571 28.7032 157.762 28.3034 157.047C27.8884 156.369 27.3004 155.814 26.5998 155.438C25.8279 155.003 24.9525 154.784 24.0664 154.805H15.7318C13.2386 154.85 10.7618 154.393 8.44842 153.462C6.39291 152.623 4.64129 151.179 3.42608 149.32C2.13104 147.196 1.49005 144.738 1.58308 142.252C1.56069 140.041 2.15504 137.868 3.29942 135.976C4.44351 134.078 6.04083 132.494 7.94808 131.365C9.94978 130.18 12.2406 129.573 14.5664 129.611H34.1998C34.2614 129.613 34.3201 129.638 34.3637 129.681C34.4073 129.725 34.4325 129.784 34.4341 129.845V130.713C34.4324 132.548 33.7026 134.308 32.4047 135.606C31.1069 136.904 29.3472 137.634 27.5118 137.635H15.9724C15.4766 137.63 14.9823 137.691 14.5031 137.819C14.059 137.942 13.6331 138.123 13.2364 138.357C12.9072 138.545 12.6011 138.77 12.3244 139.029C11.9275 139.411 11.6118 139.869 11.3962 140.376C11.1805 140.884 11.0694 141.429 11.0694 141.98C11.0694 142.531 11.1805 143.077 11.3962 143.584C11.6118 144.091 11.9275 144.549 12.3244 144.931C12.7672 145.36 13.2927 145.693 13.8688 145.911C14.4449 146.128 15.0595 146.226 15.6748 146.198H23.7688C26.4705 146.12 29.1591 146.601 31.6664 147.61C33.7349 148.472 35.4775 149.966 36.6444 151.879C37.8644 154.077 38.458 156.568 38.3608 159.08C38.3711 161.388 37.7655 163.658 36.6064 165.654C35.4253 167.71 33.7149 169.411 31.6533 170.582C29.5916 171.753 27.2539 172.349 24.8834 172.31H3.62242C3.52499 172.31 3.43156 172.272 3.36267 172.203C3.29378 172.134 3.25508 172.04 3.25508 171.943Z" fill="white"/>
<path d="M103.107 172.312V148.246C103.046 144.88 103.895 141.561 105.564 138.638C107.216 135.818 109.631 133.521 112.531 132.013C115.792 130.343 119.419 129.514 123.082 129.6C126.733 129.51 130.349 130.34 133.595 132.013C136.472 133.533 138.866 135.828 140.505 138.638C142.174 141.561 143.023 144.88 142.962 148.246V172.312H133.633V148.341C133.646 146.479 133.171 144.647 132.254 143.026C131.337 141.406 130.011 140.055 128.408 139.107C126.806 138.16 124.983 137.65 123.121 137.627C121.26 137.605 119.425 138.071 117.8 138.98C116.205 139.867 114.877 141.166 113.956 142.742C112.979 144.444 112.484 146.379 112.524 148.341V172.312H103.107Z" fill="white"/>
<path d="M89.2237 159.195C88.3608 160.502 87.248 161.625 85.9493 162.501C84.1143 163.706 81.9563 164.324 79.7617 164.274C77.4909 164.346 75.2518 163.728 73.3397 162.501C71.5666 161.306 70.161 159.642 69.28 157.694C68.3443 155.564 67.8612 153.263 67.8612 150.936C67.8612 148.61 68.3443 146.309 69.28 144.178C70.188 142.16 71.678 140.46 73.5591 139.294C75.4401 138.128 77.6264 137.551 79.8377 137.636C82.0457 137.575 84.2191 138.194 86.0633 139.409C87.806 140.592 89.1958 142.225 90.085 144.134C90.9491 145.988 91.4254 147.999 91.4847 150.043V172.267H100.814C100.814 165.144 100.814 158.017 100.814 150.885C100.859 147.144 99.9891 143.448 98.2803 140.119C96.6421 136.941 94.1506 134.283 91.0857 132.443C87.9612 130.555 84.1908 129.61 79.7743 129.605C75.2903 129.605 71.446 130.555 68.216 132.443C65.076 134.262 62.5072 136.923 60.7997 140.125C59.0361 143.491 58.1434 147.245 58.203 151.044C58.1579 154.727 58.9369 158.373 60.483 161.715C61.9083 164.835 64.1625 167.503 67 169.429C69.983 171.397 73.4976 172.403 77.07 172.311C79.3143 172.362 81.5452 171.953 83.625 171.108C85.3916 170.374 86.9953 169.298 88.3433 167.941C88.6537 167.624 88.9767 167.308 89.23 166.972L89.2237 159.195Z" fill="white"/>
<path d="M185.738 140.124C184.034 136.873 181.431 134.18 178.239 132.366C174.749 130.458 170.816 129.505 166.839 129.605C162.25 129.605 158.359 130.553 155.167 132.448C152.05 134.261 149.507 136.915 147.827 140.105C146.094 143.478 145.223 147.227 145.293 151.018C145.212 154.858 146.082 158.659 147.827 162.082C149.423 165.185 151.851 167.783 154.838 169.587C157.906 171.392 161.412 172.317 164.971 172.26C166.883 172.28 168.786 171.994 170.608 171.411C172.262 170.868 173.81 170.045 175.187 168.979C175.7 168.58 176.194 168.143 176.681 167.712C176.718 167.677 176.748 167.635 176.769 167.588C176.789 167.542 176.801 167.491 176.802 167.44V159.207C175.732 160.823 174.266 162.138 172.542 163.025C170.819 163.913 168.897 164.342 166.96 164.273C164.69 164.333 162.455 163.715 160.538 162.5C158.738 161.322 157.297 159.672 156.37 157.731C155.386 155.661 154.889 153.392 154.92 151.1C154.881 148.744 155.377 146.41 156.37 144.273C157.293 142.307 158.733 140.63 160.538 139.421C162.446 138.181 164.685 137.547 166.96 137.604C169.263 137.54 171.533 138.174 173.47 139.421C175.278 140.64 176.717 142.331 177.631 144.311C178.47 146.129 178.95 148.093 179.044 150.093H179.088V172.361V175.939C179.127 177.132 178.705 178.293 177.91 179.182C177.489 179.624 176.977 179.969 176.409 180.193C175.842 180.417 175.232 180.515 174.623 180.48H161.298C159.335 180.489 157.455 181.273 156.069 182.663C154.683 184.053 153.904 185.934 153.9 187.897V188.049C153.9 188.146 153.939 188.24 154.008 188.308C154.077 188.377 154.17 188.416 154.268 188.416H176.358C180.087 188.416 183.042 187.335 185.225 185.173C187.408 183.012 188.489 180.056 188.468 176.307V151.765C188.544 147.718 187.605 143.716 185.738 140.124Z" fill="white"/>
</svg>
