<svg width="88" height="64" viewBox="0 0 88 64" fill="none" xmlns="http://www.w3.org/2000/svg">
<g clip-path="url(#clip0_4329_6243)">
<path d="M44.3351 16.7179L44.626 17H45.0312H57.4062C58.5918 17 59.5 17.9242 59.5 19V33C59.5 34.0758 58.5918 35 57.4062 35H30.5938C29.4082 35 28.5 34.0758 28.5 33V15C28.5 13.9242 29.4082 13 30.5938 13H40.501L44.3351 16.7179Z" fill="#415382" stroke="white" stroke-width="2"/>
</g>
<path d="M20.3519 53L19.5959 50.732H16.4639L15.7319 53H14.3519L17.2079 44.624H18.9119L21.7679 53H20.3519ZM18.0599 45.872H17.9999L16.7879 49.568H19.2599L18.0599 45.872ZM22.9692 53V46.76H24.2772V47.96H24.3372C24.4252 47.64 24.6092 47.36 24.8892 47.12C25.1692 46.88 25.5572 46.76 26.0532 46.76H26.4012V48.02H25.8852C25.3652 48.02 24.9652 48.104 24.6852 48.272C24.4132 48.44 24.2772 48.688 24.2772 49.016V53H22.9692ZM29.9164 53.144C29.4684 53.144 29.0684 53.068 28.7164 52.916C28.3644 52.764 28.0684 52.548 27.8284 52.268C27.5884 51.98 27.4044 51.636 27.2764 51.236C27.1484 50.828 27.0844 50.376 27.0844 49.88C27.0844 49.384 27.1484 48.936 27.2764 48.536C27.4044 48.128 27.5884 47.784 27.8284 47.504C28.0684 47.216 28.3644 46.996 28.7164 46.844C29.0684 46.692 29.4684 46.616 29.9164 46.616C30.5404 46.616 31.0524 46.756 31.4524 47.036C31.8524 47.316 32.1444 47.688 32.3284 48.152L31.2484 48.656C31.1604 48.368 31.0044 48.14 30.7804 47.972C30.5644 47.796 30.2764 47.708 29.9164 47.708C29.4364 47.708 29.0724 47.86 28.8244 48.164C28.5844 48.46 28.4644 48.848 28.4644 49.328V50.444C28.4644 50.924 28.5844 51.316 28.8244 51.62C29.0724 51.916 29.4364 52.064 29.9164 52.064C30.3004 52.064 30.6044 51.972 30.8284 51.788C31.0604 51.596 31.2444 51.344 31.3804 51.032L32.3764 51.56C32.1684 52.072 31.8564 52.464 31.4404 52.736C31.0244 53.008 30.5164 53.144 29.9164 53.144ZM33.6215 44.12H34.9295V47.792H34.9895C35.1255 47.456 35.3295 47.176 35.6015 46.952C35.8815 46.728 36.2615 46.616 36.7415 46.616C37.3815 46.616 37.8775 46.828 38.2295 47.252C38.5895 47.668 38.7695 48.264 38.7695 49.04V53H37.4615V49.196C37.4615 48.228 37.0695 47.744 36.2855 47.744C36.1175 47.744 35.9495 47.768 35.7815 47.816C35.6215 47.856 35.4775 47.92 35.3495 48.008C35.2215 48.096 35.1175 48.208 35.0375 48.344C34.9655 48.48 34.9295 48.636 34.9295 48.812V53H33.6215V44.12ZM41.2425 45.644C40.9705 45.644 40.7705 45.58 40.6425 45.452C40.5225 45.324 40.4625 45.16 40.4625 44.96V44.756C40.4625 44.556 40.5225 44.392 40.6425 44.264C40.7705 44.136 40.9705 44.072 41.2425 44.072C41.5145 44.072 41.7105 44.136 41.8305 44.264C41.9505 44.392 42.0105 44.556 42.0105 44.756V44.96C42.0105 45.16 41.9505 45.324 41.8305 45.452C41.7105 45.58 41.5145 45.644 41.2425 45.644ZM40.5825 46.76H41.8905V53H40.5825V46.76ZM45.1143 53L42.9903 46.76H44.2863L45.2343 49.604L45.8703 51.788H45.9423L46.5783 49.604L47.5503 46.76H48.7983L46.6503 53H45.1143ZM54.3654 53C54.0214 53 53.7574 52.904 53.5734 52.712C53.3894 52.512 53.2774 52.26 53.2374 51.956H53.1774C53.0574 52.348 52.8374 52.644 52.5174 52.844C52.1974 53.044 51.8094 53.144 51.3534 53.144C50.7054 53.144 50.2054 52.976 49.8534 52.64C49.5094 52.304 49.3374 51.852 49.3374 51.284C49.3374 50.66 49.5614 50.192 50.0094 49.88C50.4654 49.568 51.1294 49.412 52.0014 49.412H53.1294V48.884C53.1294 48.5 53.0254 48.204 52.8174 47.996C52.6094 47.788 52.2854 47.684 51.8454 47.684C51.4774 47.684 51.1774 47.764 50.9454 47.924C50.7134 48.084 50.5174 48.288 50.3574 48.536L49.5774 47.828C49.7854 47.476 50.0774 47.188 50.4534 46.964C50.8294 46.732 51.3214 46.616 51.9294 46.616C52.7374 46.616 53.3574 46.804 53.7894 47.18C54.2214 47.556 54.4374 48.096 54.4374 48.8V51.932H55.0974V53H54.3654ZM51.7254 52.148C52.1334 52.148 52.4694 52.06 52.7334 51.884C52.9974 51.7 53.1294 51.456 53.1294 51.152V50.252H52.0254C51.1214 50.252 50.6694 50.532 50.6694 51.092V51.308C50.6694 51.588 50.7614 51.8 50.9454 51.944C51.1374 52.08 51.3974 52.148 51.7254 52.148ZM60.3034 51.968H60.2434C60.1074 52.336 59.8834 52.624 59.5714 52.832C59.2674 53.04 58.9074 53.144 58.4914 53.144C57.6994 53.144 57.0874 52.86 56.6554 52.292C56.2234 51.716 56.0074 50.912 56.0074 49.88C56.0074 48.848 56.2234 48.048 56.6554 47.48C57.0874 46.904 57.6994 46.616 58.4914 46.616C58.9074 46.616 59.2674 46.72 59.5714 46.928C59.8834 47.128 60.1074 47.416 60.2434 47.792H60.3034V44.12H61.6114V53H60.3034V51.968ZM58.8874 52.016C59.2874 52.016 59.6234 51.92 59.8954 51.728C60.1674 51.528 60.3034 51.268 60.3034 50.948V48.812C60.3034 48.492 60.1674 48.236 59.8954 48.044C59.6234 47.844 59.2874 47.744 58.8874 47.744C58.4314 47.744 58.0674 47.892 57.7954 48.188C57.5234 48.476 57.3874 48.86 57.3874 49.34V50.42C57.3874 50.9 57.5234 51.288 57.7954 51.584C58.0674 51.872 58.4314 52.016 58.8874 52.016ZM65.9289 53.144C65.4969 53.144 65.1009 53.068 64.7409 52.916C64.3889 52.764 64.0889 52.548 63.8409 52.268C63.5929 51.98 63.4009 51.636 63.2649 51.236C63.1289 50.828 63.0609 50.376 63.0609 49.88C63.0609 49.384 63.1289 48.936 63.2649 48.536C63.4009 48.128 63.5929 47.784 63.8409 47.504C64.0889 47.216 64.3889 46.996 64.7409 46.844C65.1009 46.692 65.4969 46.616 65.9289 46.616C66.3609 46.616 66.7529 46.692 67.1049 46.844C67.4649 46.996 67.7689 47.216 68.0169 47.504C68.2649 47.784 68.4569 48.128 68.5929 48.536C68.7289 48.936 68.7969 49.384 68.7969 49.88C68.7969 50.376 68.7289 50.828 68.5929 51.236C68.4569 51.636 68.2649 51.98 68.0169 52.268C67.7689 52.548 67.4649 52.764 67.1049 52.916C66.7529 53.068 66.3609 53.144 65.9289 53.144ZM65.9289 52.064C66.3769 52.064 66.7369 51.928 67.0089 51.656C67.2809 51.376 67.4169 50.96 67.4169 50.408V49.352C67.4169 48.8 67.2809 48.388 67.0089 48.116C66.7369 47.836 66.3769 47.696 65.9289 47.696C65.4809 47.696 65.1209 47.836 64.8489 48.116C64.5769 48.388 64.4409 48.8 64.4409 49.352V50.408C64.4409 50.96 64.5769 51.376 64.8489 51.656C65.1209 51.928 65.4809 52.064 65.9289 52.064ZM70.2544 53V46.76H71.5624V47.96H71.6224C71.7104 47.64 71.8944 47.36 72.1744 47.12C72.4544 46.88 72.8424 46.76 73.3384 46.76H73.6864V48.02H73.1704C72.6504 48.02 72.2504 48.104 71.9704 48.272C71.6984 48.44 71.5624 48.688 71.5624 49.016V53H70.2544Z" fill="white"/>
<defs>
<clipPath id="clip0_4329_6243">
<rect width="33" height="32" fill="white" transform="translate(27.5 8)"/>
</clipPath>
</defs>
</svg>
