<svg width="213" height="460" viewBox="0 0 213 460" fill="none" xmlns="http://www.w3.org/2000/svg">
<path d="M128.238 183.943C132.684 183.943 136.947 185.709 140.091 188.853C143.234 191.996 145 196.26 145 200.705C145 205.151 143.234 209.414 140.091 212.558C136.947 215.701 132.684 217.467 128.238 217.467C123.793 217.467 119.529 215.701 116.386 212.558C113.242 209.414 111.476 205.151 111.476 200.705C111.476 196.26 113.242 191.996 116.386 188.853C119.529 185.709 123.793 183.943 128.238 183.943ZM128.238 190.038L127.964 190.063C127.659 190.118 127.379 190.266 127.16 190.484C126.941 190.703 126.794 190.984 126.739 191.288L126.714 191.562V199.181H119.089L118.815 199.209C118.51 199.264 118.23 199.411 118.011 199.63C117.792 199.849 117.645 200.129 117.59 200.434L117.565 200.708L117.59 200.982C117.645 201.287 117.792 201.567 118.011 201.786C118.23 202.005 118.51 202.152 118.815 202.208L119.089 202.232H126.714V209.86L126.739 210.134C126.794 210.439 126.941 210.719 127.16 210.938C127.379 211.157 127.659 211.304 127.964 211.36L128.238 211.384L128.512 211.36C128.817 211.304 129.097 211.157 129.316 210.938C129.535 210.719 129.682 210.439 129.738 210.134L129.762 209.86V202.229H137.393L137.667 202.208C137.972 202.152 138.252 202.005 138.471 201.786C138.69 201.567 138.837 201.287 138.893 200.982L138.917 200.708L138.893 200.434C138.837 200.129 138.689 199.848 138.47 199.63C138.25 199.411 137.969 199.264 137.664 199.209L137.39 199.184H129.762V191.565L129.738 191.291C129.682 190.986 129.536 190.705 129.317 190.486C129.098 190.266 128.817 190.119 128.512 190.063L128.238 190.038ZM117.343 155.003C118.538 155.003 119.712 155.315 120.749 155.908C121.786 156.502 122.65 157.356 123.255 158.386L125.736 162.613H132.048C134.674 162.613 137.193 163.656 139.05 165.513C140.908 167.37 141.952 169.888 141.952 172.515V186.412C140.593 185.107 139.055 184.001 137.384 183.13L137.381 172.515C137.381 171.1 136.819 169.744 135.819 168.743C134.819 167.743 133.462 167.181 132.048 167.181H124.429C124.03 167.182 123.639 167.078 123.293 166.88C122.947 166.682 122.659 166.397 122.457 166.054L119.312 160.699C119.11 160.356 118.822 160.071 118.477 159.874C118.132 159.676 117.741 159.572 117.343 159.571H105.753C105.419 159.572 105.09 159.645 104.788 159.786C104.485 159.927 104.218 160.133 104.003 160.388L103.805 160.662L100.474 166.09C100.27 166.423 99.9838 166.699 99.6428 166.89C99.3019 167.081 98.9177 167.181 98.5269 167.181H90.9078C90.2072 167.181 89.5133 167.319 88.8659 167.586C88.2185 167.854 87.6302 168.247 87.1346 168.742C86.639 169.238 86.2459 169.826 85.9777 170.473C85.7095 171.12 85.5714 171.814 85.5714 172.515V201.467C85.5714 204.411 87.9608 206.8 90.9048 206.8H109.382C109.91 208.425 110.638 209.961 111.543 211.372H90.9048C88.2779 211.372 85.7585 210.328 83.901 208.471C82.0435 206.613 81 204.094 81 201.467V172.515C81 169.888 82.0435 167.368 83.901 165.511C85.7585 163.653 88.2779 162.61 90.9048 162.61H97.2438L99.9105 158.27C100.524 157.271 101.383 156.446 102.405 155.874C103.428 155.301 104.581 155 105.753 155H117.343V155.003ZM111.476 171.753C114.376 171.753 117.2 172.671 119.546 174.376C121.891 176.081 123.635 178.485 124.529 181.243C123.005 181.533 121.542 181.996 120.162 182.611C119.487 180.542 118.095 178.781 116.237 177.647C114.379 176.512 112.177 176.078 110.028 176.422C107.878 176.767 105.922 177.867 104.512 179.525C103.101 181.183 102.329 183.29 102.333 185.467C102.333 189.825 105.381 193.467 109.459 194.387C108.971 195.836 108.654 197.336 108.514 198.858C105.222 198.12 102.318 196.195 100.356 193.451C98.3936 190.707 97.5115 187.336 97.8781 183.983C98.2446 180.629 99.834 177.528 102.343 175.273C104.851 173.017 108.103 171.765 111.476 171.756V171.753Z" fill="white"/>
<path d="M48.08 252.28H43.424V257H41.312V245.832H43.424V250.408H48.08V245.832H50.192V257H48.08V252.28ZM58.828 257C58.38 257 58.0227 256.872 57.756 256.616C57.5 256.349 57.34 255.997 57.276 255.56H57.18C57.0413 256.104 56.7587 256.515 56.332 256.792C55.9053 257.059 55.3773 257.192 54.748 257.192C53.8947 257.192 53.2387 256.968 52.78 256.52C52.3213 256.072 52.092 255.475 52.092 254.728C52.092 253.864 52.4013 253.224 53.02 252.808C53.6387 252.381 54.5187 252.168 55.66 252.168H57.084V251.56C57.084 251.091 56.9613 250.728 56.716 250.472C56.4707 250.216 56.076 250.088 55.532 250.088C55.052 250.088 54.6627 250.195 54.364 250.408C54.076 250.611 53.8307 250.856 53.628 251.144L52.412 250.056C52.7213 249.576 53.132 249.192 53.644 248.904C54.156 248.605 54.8333 248.456 55.676 248.456C56.8067 248.456 57.6653 248.712 58.252 249.224C58.8387 249.736 59.132 250.472 59.132 251.432V255.368H59.964V257H58.828ZM55.436 255.704C55.8947 255.704 56.284 255.603 56.604 255.4C56.924 255.197 57.084 254.899 57.084 254.504V253.4H55.772C54.7053 253.4 54.172 253.741 54.172 254.424V254.696C54.172 255.037 54.2787 255.293 54.492 255.464C54.716 255.624 55.0307 255.704 55.436 255.704ZM64.9175 257.192C64.2988 257.192 63.7495 257.091 63.2695 256.888C62.7895 256.685 62.3842 256.392 62.0535 256.008C61.7335 255.624 61.4882 255.165 61.3175 254.632C61.1468 254.088 61.0615 253.48 61.0615 252.808C61.0615 252.136 61.1468 251.533 61.3175 251C61.4882 250.467 61.7335 250.013 62.0535 249.64C62.3842 249.256 62.7895 248.963 63.2695 248.76C63.7495 248.557 64.2988 248.456 64.9175 248.456C65.7602 248.456 66.4535 248.643 66.9975 249.016C67.5522 249.389 67.9522 249.907 68.1975 250.568L66.5175 251.32C66.4215 250.968 66.2402 250.68 65.9735 250.456C65.7175 250.221 65.3655 250.104 64.9175 250.104C64.3415 250.104 63.9095 250.285 63.6215 250.648C63.3442 251.011 63.2055 251.485 63.2055 252.072V253.592C63.2055 254.179 63.3442 254.653 63.6215 255.016C63.9095 255.368 64.3415 255.544 64.9175 255.544C65.4082 255.544 65.7868 255.421 66.0535 255.176C66.3202 254.92 66.5282 254.605 66.6775 254.232L68.2455 254.984C67.9682 255.72 67.5468 256.275 66.9815 256.648C66.4162 257.011 65.7282 257.192 64.9175 257.192ZM73.1225 257.192C72.5038 257.192 71.9492 257.091 71.4585 256.888C70.9785 256.675 70.5678 256.381 70.2265 256.008C69.8958 255.624 69.6398 255.165 69.4585 254.632C69.2772 254.088 69.1865 253.48 69.1865 252.808C69.1865 252.147 69.2718 251.549 69.4425 251.016C69.6238 250.483 69.8798 250.029 70.2105 249.656C70.5412 249.272 70.9465 248.979 71.4265 248.776C71.9065 248.563 72.4505 248.456 73.0585 248.456C73.7092 248.456 74.2745 248.568 74.7545 248.792C75.2345 249.016 75.6292 249.32 75.9385 249.704C76.2478 250.088 76.4772 250.536 76.6265 251.048C76.7865 251.549 76.8665 252.088 76.8665 252.664V253.336H71.3145V253.544C71.3145 254.152 71.4852 254.643 71.8265 255.016C72.1678 255.379 72.6745 255.56 73.3465 255.56C73.8585 255.56 74.2745 255.453 74.5945 255.24C74.9252 255.027 75.2185 254.755 75.4745 254.424L76.5785 255.656C76.2372 256.136 75.7678 256.515 75.1705 256.792C74.5838 257.059 73.9012 257.192 73.1225 257.192ZM73.0905 249.992C72.5465 249.992 72.1145 250.173 71.7945 250.536C71.4745 250.899 71.3145 251.368 71.3145 251.944V252.072H74.7385V251.928C74.7385 251.352 74.5945 250.888 74.3065 250.536C74.0292 250.173 73.6238 249.992 73.0905 249.992ZM78.6684 257V248.648H80.7164V250.376H80.7964C80.8497 250.152 80.9297 249.939 81.0364 249.736C81.1537 249.523 81.303 249.336 81.4844 249.176C81.6657 249.016 81.879 248.888 82.1244 248.792C82.3804 248.696 82.6737 248.648 83.0044 248.648H83.4524V250.584H82.8124C82.119 250.584 81.5964 250.685 81.2444 250.888C80.8924 251.091 80.7164 251.421 80.7164 251.88V257H78.6684ZM88.8589 257V245.832H96.0429V247.704H90.9709V250.408H95.3869V252.28H90.9709V257H88.8589ZM100.793 257.192C100.196 257.192 99.6569 257.091 99.1769 256.888C98.7075 256.685 98.3022 256.392 97.9609 256.008C97.6302 255.624 97.3742 255.165 97.1929 254.632C97.0115 254.088 96.9209 253.48 96.9209 252.808C96.9209 252.136 97.0115 251.533 97.1929 251C97.3742 250.467 97.6302 250.013 97.9609 249.64C98.3022 249.256 98.7075 248.963 99.1769 248.76C99.6569 248.557 100.196 248.456 100.793 248.456C101.39 248.456 101.929 248.557 102.409 248.76C102.889 248.963 103.294 249.256 103.625 249.64C103.966 250.013 104.228 250.467 104.409 251C104.59 251.533 104.681 252.136 104.681 252.808C104.681 253.48 104.59 254.088 104.409 254.632C104.228 255.165 103.966 255.624 103.625 256.008C103.294 256.392 102.889 256.685 102.409 256.888C101.929 257.091 101.39 257.192 100.793 257.192ZM100.793 255.544C101.337 255.544 101.764 255.379 102.073 255.048C102.382 254.717 102.537 254.232 102.537 253.592V252.04C102.537 251.411 102.382 250.931 102.073 250.6C101.764 250.269 101.337 250.104 100.793 250.104C100.26 250.104 99.8382 250.269 99.5289 250.6C99.2195 250.931 99.0649 251.411 99.0649 252.04V253.592C99.0649 254.232 99.2195 254.717 99.5289 255.048C99.8382 255.379 100.26 255.544 100.793 255.544ZM109.042 257C108.338 257 107.799 256.819 107.426 256.456C107.063 256.083 106.882 255.555 106.882 254.872V250.28H105.65V248.648H106.29C106.599 248.648 106.807 248.579 106.914 248.44C107.031 248.291 107.09 248.072 107.09 247.784V246.36H108.93V248.648H110.642V250.28H108.93V255.368H110.514V257H109.042ZM115.668 257.192C115.071 257.192 114.532 257.091 114.052 256.888C113.583 256.685 113.177 256.392 112.836 256.008C112.505 255.624 112.249 255.165 112.068 254.632C111.887 254.088 111.796 253.48 111.796 252.808C111.796 252.136 111.887 251.533 112.068 251C112.249 250.467 112.505 250.013 112.836 249.64C113.177 249.256 113.583 248.963 114.052 248.76C114.532 248.557 115.071 248.456 115.668 248.456C116.265 248.456 116.804 248.557 117.284 248.76C117.764 248.963 118.169 249.256 118.5 249.64C118.841 250.013 119.103 250.467 119.284 251C119.465 251.533 119.556 252.136 119.556 252.808C119.556 253.48 119.465 254.088 119.284 254.632C119.103 255.165 118.841 255.624 118.5 256.008C118.169 256.392 117.764 256.685 117.284 256.888C116.804 257.091 116.265 257.192 115.668 257.192ZM115.668 255.544C116.212 255.544 116.639 255.379 116.948 255.048C117.257 254.717 117.412 254.232 117.412 253.592V252.04C117.412 251.411 117.257 250.931 116.948 250.6C116.639 250.269 116.212 250.104 115.668 250.104C115.135 250.104 114.713 250.269 114.404 250.6C114.095 250.931 113.94 251.411 113.94 252.04V253.592C113.94 254.232 114.095 254.717 114.404 255.048C114.713 255.379 115.135 255.544 115.668 255.544ZM131.297 257C130.849 257 130.491 256.872 130.225 256.616C129.969 256.349 129.809 255.997 129.745 255.56H129.649C129.51 256.104 129.227 256.515 128.801 256.792C128.374 257.059 127.846 257.192 127.217 257.192C126.363 257.192 125.707 256.968 125.249 256.52C124.79 256.072 124.561 255.475 124.561 254.728C124.561 253.864 124.87 253.224 125.489 252.808C126.107 252.381 126.987 252.168 128.129 252.168H129.553V251.56C129.553 251.091 129.43 250.728 129.185 250.472C128.939 250.216 128.545 250.088 128.001 250.088C127.521 250.088 127.131 250.195 126.833 250.408C126.545 250.611 126.299 250.856 126.097 251.144L124.881 250.056C125.19 249.576 125.601 249.192 126.113 248.904C126.625 248.605 127.302 248.456 128.145 248.456C129.275 248.456 130.134 248.712 130.721 249.224C131.307 249.736 131.601 250.472 131.601 251.432V255.368H132.433V257H131.297ZM127.905 255.704C128.363 255.704 128.753 255.603 129.073 255.4C129.393 255.197 129.553 254.899 129.553 254.504V253.4H128.241C127.174 253.4 126.641 253.741 126.641 254.424V254.696C126.641 255.037 126.747 255.293 126.961 255.464C127.185 255.624 127.499 255.704 127.905 255.704ZM142.384 247.704V257H140.272V247.704H137.104V245.832H145.552V247.704H142.384ZM148.177 247.432C147.75 247.432 147.441 247.336 147.249 247.144C147.067 246.952 146.977 246.707 146.977 246.408V246.088C146.977 245.789 147.067 245.544 147.249 245.352C147.441 245.16 147.75 245.064 148.177 245.064C148.593 245.064 148.897 245.16 149.089 245.352C149.281 245.544 149.377 245.789 149.377 246.088V246.408C149.377 246.707 149.281 246.952 149.089 247.144C148.897 247.336 148.593 247.432 148.177 247.432ZM147.153 248.648H149.201V257H147.153V248.648ZM154.871 257.192C154.252 257.192 153.703 257.091 153.223 256.888C152.743 256.685 152.337 256.392 152.007 256.008C151.687 255.624 151.441 255.165 151.271 254.632C151.1 254.088 151.015 253.48 151.015 252.808C151.015 252.136 151.1 251.533 151.271 251C151.441 250.467 151.687 250.013 152.007 249.64C152.337 249.256 152.743 248.963 153.223 248.76C153.703 248.557 154.252 248.456 154.871 248.456C155.713 248.456 156.407 248.643 156.951 249.016C157.505 249.389 157.905 249.907 158.151 250.568L156.471 251.32C156.375 250.968 156.193 250.68 155.927 250.456C155.671 250.221 155.319 250.104 154.871 250.104C154.295 250.104 153.863 250.285 153.575 250.648C153.297 251.011 153.159 251.485 153.159 252.072V253.592C153.159 254.179 153.297 254.653 153.575 255.016C153.863 255.368 154.295 255.544 154.871 255.544C155.361 255.544 155.74 255.421 156.007 255.176C156.273 254.92 156.481 254.605 156.631 254.232L158.199 254.984C157.921 255.72 157.5 256.275 156.935 256.648C156.369 257.011 155.681 257.192 154.871 257.192ZM159.778 245.16H161.826V252.296H161.906L163.01 250.792L164.882 248.648H167.202L164.322 251.88L167.506 257H165.074L162.93 253.256L161.826 254.456V257H159.778V245.16ZM171.748 257.192C171.129 257.192 170.574 257.091 170.084 256.888C169.604 256.675 169.193 256.381 168.852 256.008C168.521 255.624 168.265 255.165 168.084 254.632C167.902 254.088 167.812 253.48 167.812 252.808C167.812 252.147 167.897 251.549 168.068 251.016C168.249 250.483 168.505 250.029 168.836 249.656C169.166 249.272 169.572 248.979 170.052 248.776C170.532 248.563 171.076 248.456 171.684 248.456C172.334 248.456 172.9 248.568 173.38 248.792C173.86 249.016 174.254 249.32 174.564 249.704C174.873 250.088 175.102 250.536 175.252 251.048C175.412 251.549 175.492 252.088 175.492 252.664V253.336H169.94V253.544C169.94 254.152 170.11 254.643 170.452 255.016C170.793 255.379 171.3 255.56 171.972 255.56C172.484 255.56 172.9 255.453 173.22 255.24C173.55 255.027 173.844 254.755 174.1 254.424L175.204 255.656C174.862 256.136 174.393 256.515 173.796 256.792C173.209 257.059 172.526 257.192 171.748 257.192ZM171.716 249.992C171.172 249.992 170.74 250.173 170.42 250.536C170.1 250.899 169.94 251.368 169.94 251.944V252.072H173.364V251.928C173.364 251.352 173.22 250.888 172.932 250.536C172.654 250.173 172.249 249.992 171.716 249.992ZM179.901 257C179.197 257 178.659 256.819 178.285 256.456C177.923 256.083 177.741 255.555 177.741 254.872V250.28H176.509V248.648H177.149C177.459 248.648 177.667 248.579 177.773 248.44C177.891 248.291 177.949 248.072 177.949 247.784V246.36H179.789V248.648H181.501V250.28H179.789V255.368H181.373V257H179.901Z" fill="white"/>
</svg>
