<svg width="12" height="13" viewBox="0 0 12 13" fill="none" xmlns="http://www.w3.org/2000/svg">
<path d="M2 1.5H10V-0.5H2V1.5ZM11 2.5V10.5H13V2.5H11ZM10 11.5H2V13.5H10V11.5ZM1 10.5V2.5H-1V10.5H1ZM2 11.5C1.44772 11.5 1 11.0523 1 10.5H-1C-1 12.1569 0.343146 13.5 2 13.5V11.5ZM11 10.5C11 11.0523 10.5523 11.5 10 11.5V13.5C11.6569 13.5 13 12.1569 13 10.5H11ZM10 1.5C10.5523 1.5 11 1.94772 11 2.5H13C13 0.843146 11.6569 -0.5 10 -0.5V1.5ZM2 -0.5C0.343146 -0.5 -1 0.843146 -1 2.5H1C1 1.94772 1.44772 1.5 2 1.5V-0.5Z" fill="#011A58"/>
</svg>
