<svg width="12" height="12" viewBox="0 0 12 12" fill="none" xmlns="http://www.w3.org/2000/svg">
<path d="M2 6L5.5 9.5L9.5 2.5" stroke="#011A58" stroke-linecap="round"/>
<path d="M2 1H10V-1H2V1ZM11 2V10H13V2H11ZM10 11H2V13H10V11ZM1 10V2H-1V10H1ZM2 11C1.44772 11 1 10.5523 1 10H-1C-1 11.6569 0.343146 13 2 13V11ZM11 10C11 10.5523 10.5523 11 10 11V13C11.6569 13 13 11.6569 13 10H11ZM10 1C10.5523 1 11 1.44772 11 2H13C13 0.343146 11.6569 -1 10 -1V1ZM2 -1C0.343146 -1 -1 0.343146 -1 2H1C1 1.44772 1.44772 1 2 1V-1Z" fill="#011A58"/>
</svg>
