<svg width="88" height="42" viewBox="0 0 88 42" fill="none" xmlns="http://www.w3.org/2000/svg">
<circle cx="37.5" cy="13.5" r="4.875" stroke="#011A58" stroke-width="1.25"/>
<circle cx="52.5" cy="4.5" r="2.875" stroke="#011A58" stroke-width="1.25"/>
<circle cx="52.5" cy="21.5" r="2.875" stroke="#011A58" stroke-width="1.25"/>
<path d="M50 6L42 11.25M42 15.9167L50 20.5" stroke="#011A58" stroke-width="1.25"/>
<path d="M21.027 38.144C19.963 38.144 19.135 37.784 18.543 37.064C17.951 36.336 17.655 35.268 17.655 33.86C17.655 32.452 17.951 31.372 18.543 30.62C19.135 29.86 19.963 29.48 21.027 29.48C21.731 29.48 22.319 29.64 22.791 29.96C23.271 30.28 23.643 30.732 23.907 31.316L23.091 31.808C22.923 31.376 22.667 31.032 22.323 30.776C21.979 30.512 21.547 30.38 21.027 30.38C20.667 30.38 20.343 30.448 20.055 30.584C19.775 30.72 19.535 30.916 19.335 31.172C19.143 31.42 18.995 31.72 18.891 32.072C18.787 32.416 18.735 32.804 18.735 33.236V34.484C18.735 35.348 18.935 36.024 19.335 36.512C19.735 37 20.299 37.244 21.027 37.244C21.563 37.244 22.011 37.108 22.371 36.836C22.731 36.556 22.995 36.188 23.163 35.732L23.967 36.236C23.703 36.828 23.323 37.296 22.827 37.64C22.331 37.976 21.731 38.144 21.027 38.144ZM27.7721 38.144C27.3561 38.144 26.9761 38.068 26.6321 37.916C26.2881 37.764 25.9921 37.548 25.7441 37.268C25.5041 36.98 25.3161 36.64 25.1801 36.248C25.0441 35.848 24.9761 35.4 24.9761 34.904C24.9761 34.416 25.0441 33.972 25.1801 33.572C25.3161 33.172 25.5041 32.832 25.7441 32.552C25.9921 32.264 26.2881 32.044 26.6321 31.892C26.9761 31.74 27.3561 31.664 27.7721 31.664C28.1881 31.664 28.5641 31.74 28.9001 31.892C29.2441 32.044 29.5401 32.264 29.7881 32.552C30.0361 32.832 30.2281 33.172 30.3641 33.572C30.5001 33.972 30.5681 34.416 30.5681 34.904C30.5681 35.4 30.5001 35.848 30.3641 36.248C30.2281 36.64 30.0361 36.98 29.7881 37.268C29.5401 37.548 29.2441 37.764 28.9001 37.916C28.5641 38.068 28.1881 38.144 27.7721 38.144ZM27.7721 37.292C28.2921 37.292 28.7161 37.132 29.0441 36.812C29.3721 36.492 29.5361 36.004 29.5361 35.348V34.46C29.5361 33.804 29.3721 33.316 29.0441 32.996C28.7161 32.676 28.2921 32.516 27.7721 32.516C27.2521 32.516 26.8281 32.676 26.5001 32.996C26.1721 33.316 26.0081 33.804 26.0081 34.46V35.348C26.0081 36.004 26.1721 36.492 26.5001 36.812C26.8281 37.132 27.2521 37.292 27.7721 37.292ZM32.147 38V31.808H33.107V32.816H33.155C33.227 32.656 33.307 32.508 33.395 32.372C33.491 32.228 33.603 32.104 33.731 32C33.867 31.896 34.023 31.816 34.199 31.76C34.375 31.696 34.583 31.664 34.823 31.664C35.231 31.664 35.607 31.764 35.951 31.964C36.295 32.156 36.551 32.476 36.719 32.924H36.743C36.855 32.588 37.063 32.296 37.367 32.048C37.679 31.792 38.099 31.664 38.627 31.664C39.259 31.664 39.751 31.872 40.103 32.288C40.463 32.696 40.643 33.276 40.643 34.028V38H39.683V34.196C39.683 33.644 39.575 33.228 39.359 32.948C39.143 32.668 38.799 32.528 38.327 32.528C38.135 32.528 37.951 32.552 37.775 32.6C37.607 32.648 37.455 32.72 37.319 32.816C37.183 32.912 37.075 33.036 36.995 33.188C36.915 33.332 36.875 33.504 36.875 33.704V38H35.915V34.196C35.915 33.644 35.807 33.228 35.591 32.948C35.375 32.668 35.039 32.528 34.583 32.528C34.391 32.528 34.207 32.552 34.031 32.6C33.855 32.648 33.699 32.72 33.563 32.816C33.427 32.912 33.315 33.036 33.227 33.188C33.147 33.332 33.107 33.504 33.107 33.704V38H32.147ZM42.6235 31.808H43.5835V32.816H43.6315C43.7915 32.424 44.0235 32.136 44.3275 31.952C44.6395 31.76 45.0115 31.664 45.4435 31.664C45.8275 31.664 46.1755 31.74 46.4875 31.892C46.7995 32.044 47.0635 32.26 47.2795 32.54C47.5035 32.82 47.6715 33.16 47.7835 33.56C47.9035 33.96 47.9635 34.408 47.9635 34.904C47.9635 35.4 47.9035 35.848 47.7835 36.248C47.6715 36.648 47.5035 36.988 47.2795 37.268C47.0635 37.548 46.7995 37.764 46.4875 37.916C46.1755 38.068 45.8275 38.144 45.4435 38.144C44.6035 38.144 43.9995 37.76 43.6315 36.992H43.5835V40.4H42.6235V31.808ZM45.1795 37.28C45.7235 37.28 46.1515 37.112 46.4635 36.776C46.7755 36.432 46.9315 35.984 46.9315 35.432V34.376C46.9315 33.824 46.7755 33.38 46.4635 33.044C46.1515 32.7 45.7235 32.528 45.1795 32.528C44.9635 32.528 44.7555 32.56 44.5555 32.624C44.3635 32.68 44.1955 32.76 44.0515 32.864C43.9075 32.968 43.7915 33.096 43.7035 33.248C43.6235 33.392 43.5835 33.548 43.5835 33.716V36.02C43.5835 36.22 43.6235 36.4 43.7035 36.56C43.7915 36.712 43.9075 36.844 44.0515 36.956C44.1955 37.06 44.3635 37.14 44.5555 37.196C44.7555 37.252 44.9635 37.28 45.1795 37.28ZM54.0845 38C53.7245 38 53.4645 37.904 53.3045 37.712C53.1525 37.52 53.0565 37.28 53.0165 36.992H52.9565C52.8205 37.376 52.5965 37.664 52.2845 37.856C51.9725 38.048 51.6005 38.144 51.1685 38.144C50.5125 38.144 50.0005 37.976 49.6325 37.64C49.2725 37.304 49.0925 36.848 49.0925 36.272C49.0925 35.688 49.3045 35.24 49.7285 34.928C50.1605 34.616 50.8285 34.46 51.7325 34.46H52.9565V33.848C52.9565 33.408 52.8365 33.072 52.5965 32.84C52.3565 32.608 51.9885 32.492 51.4925 32.492C51.1165 32.492 50.8005 32.576 50.5445 32.744C50.2965 32.912 50.0885 33.136 49.9205 33.416L49.3445 32.876C49.5125 32.54 49.7805 32.256 50.1485 32.024C50.5165 31.784 50.9805 31.664 51.5405 31.664C52.2925 31.664 52.8765 31.848 53.2925 32.216C53.7085 32.584 53.9165 33.096 53.9165 33.752V37.16H54.6245V38H54.0845ZM51.3245 37.328C51.5645 37.328 51.7845 37.3 51.9845 37.244C52.1845 37.188 52.3565 37.108 52.5005 37.004C52.6445 36.9 52.7565 36.78 52.8365 36.644C52.9165 36.508 52.9565 36.36 52.9565 36.2V35.18H51.6845C51.1325 35.18 50.7285 35.26 50.4725 35.42C50.2245 35.58 50.1005 35.812 50.1005 36.116V36.368C50.1005 36.672 50.2085 36.908 50.4245 37.076C50.6485 37.244 50.9485 37.328 51.3245 37.328ZM55.9946 38V31.808H56.9546V32.948H57.0146C57.1266 32.652 57.3266 32.388 57.6146 32.156C57.9026 31.924 58.2986 31.808 58.8026 31.808H59.1746V32.768H58.6106C58.0906 32.768 57.6826 32.868 57.3866 33.068C57.0986 33.26 56.9546 33.504 56.9546 33.8V38H55.9946ZM61.8157 38C61.4797 38 61.2237 37.908 61.0477 37.724C60.8797 37.532 60.7957 37.284 60.7957 36.98V32.648H59.7757V31.808H60.3517C60.5597 31.808 60.6997 31.768 60.7717 31.688C60.8517 31.6 60.8917 31.452 60.8917 31.244V30.092H61.7557V31.808H63.1117V32.648H61.7557V37.16H63.0157V38H61.8157ZM65.1348 30.356C64.9268 30.356 64.7748 30.308 64.6788 30.212C64.5908 30.108 64.5468 29.976 64.5468 29.816V29.66C64.5468 29.5 64.5908 29.372 64.6788 29.276C64.7748 29.172 64.9268 29.12 65.1348 29.12C65.3428 29.12 65.4908 29.172 65.5788 29.276C65.6748 29.372 65.7228 29.5 65.7228 29.66V29.816C65.7228 29.976 65.6748 30.108 65.5788 30.212C65.4908 30.308 65.3428 30.356 65.1348 30.356ZM64.6548 31.808H65.6148V38H64.6548V31.808ZM67.6548 38V31.808H68.6148V32.948H68.6748C68.7868 32.652 68.9868 32.388 69.2748 32.156C69.5628 31.924 69.9588 31.808 70.4628 31.808H70.8348V32.768H70.2708C69.7508 32.768 69.3428 32.868 69.0468 33.068C68.7588 33.26 68.6148 33.504 68.6148 33.8V38H67.6548Z" fill="#011A58"/>
</svg>
