<svg width="81" height="80" viewBox="0 0 81 80" fill="none" xmlns="http://www.w3.org/2000/svg">
<rect x="0.666504" width="80" height="80" rx="40" fill="white"/>
<g clip-path="url(#clip0_3915_67168)">
<path d="M26.6654 17L12.6665 25.6948L26.6654 34.3898L40.6665 25.6948L26.6654 17ZM54.6665 17L40.6665 25.6957L54.6665 34.3913L68.6667 25.6957L54.6665 17ZM12.6665 43.0861L26.6654 51.7811L40.6665 43.0861L26.6654 34.3913L12.6665 43.0861ZM54.6665 34.3913L40.6665 43.087L54.6665 51.7824L68.6665 43.087L54.6665 34.3913ZM26.6665 54.6981L40.6676 63.3931L54.6665 54.6981L40.6676 46.0033L26.6665 54.6981Z" fill="#0061FF"/>
</g>
<defs>
<clipPath id="clip0_3915_67168">
<rect width="56" height="46.4906" fill="white" transform="translate(12.6665 17)"/>
</clipPath>
</defs>
</svg>
