<svg width="88" height="42" viewBox="0 0 88 42" fill="none" xmlns="http://www.w3.org/2000/svg">
<path d="M50 7V6.375L49.9992 6.375L50 7ZM36.0048 6.37502C35.6596 6.37239 35.3776 6.65008 35.375 6.99524C35.3724 7.34041 35.6501 7.62236 35.9952 7.62498L36.0048 6.37502ZM52 7.625C52.3452 7.625 52.625 7.34518 52.625 7C52.625 6.65482 52.3452 6.375 52 6.375V7.625ZM40.0058 24.9923L40.0056 24.3673L40.0058 24.9923ZM38.0081 23.0029L37.3831 23.0031L38.0081 23.0029ZM40.0061 25.6173C42.2217 25.6164 45.7639 25.6162 47.9901 25.6171L47.9906 24.3671C45.764 24.3662 42.2215 24.3664 40.0056 24.3673L40.0061 25.6173ZM50 7.625H52V6.375H50V7.625ZM38.0108 7.64029L50.0008 7.625L49.9992 6.375L38.0092 6.3903L38.0108 7.64029ZM38.6331 23.0027C38.6324 20.6566 38.6329 16.6598 38.6335 13.2495C38.6339 11.5443 38.6342 9.98584 38.6345 8.85362C38.6347 8.28751 38.6348 7.82797 38.6349 7.50996C38.6349 7.35096 38.6349 7.22734 38.635 7.14346C38.635 7.10153 38.635 7.06953 38.635 7.04802C38.635 7.03726 38.635 7.02913 38.635 7.02368C38.635 7.02096 38.635 7.0189 38.635 7.01753C38.635 7.01685 38.635 7.01633 38.635 7.01599C38.635 7.01582 38.635 7.01569 38.635 7.0156C38.635 7.01552 38.635 7.01548 38.01 7.01529C37.385 7.01511 37.385 7.01516 37.385 7.01524C37.385 7.01533 37.385 7.01546 37.385 7.01563C37.385 7.01597 37.385 7.01649 37.385 7.01717C37.385 7.01854 37.385 7.0206 37.385 7.02332C37.385 7.02877 37.385 7.0369 37.385 7.04766C37.385 7.06918 37.385 7.10118 37.385 7.14311C37.3849 7.22699 37.3849 7.35061 37.3849 7.50962C37.3848 7.82764 37.3847 8.28719 37.3845 8.85331C37.3842 9.98554 37.3839 11.5441 37.3835 13.2493C37.3829 16.6596 37.3824 20.6566 37.3831 23.0031L38.6331 23.0027ZM35.9952 7.62498L38.0052 7.64028L38.0148 6.39031L36.0048 6.37502L35.9952 7.62498ZM50.625 22.9854C50.625 20.6283 50.625 16.632 50.625 13.2249C50.625 11.5214 50.625 9.96513 50.625 8.83479C50.625 8.26962 50.625 7.81092 50.625 7.49352C50.625 7.33482 50.625 7.21144 50.625 7.12773C50.625 7.08588 50.625 7.05395 50.625 7.03248C50.625 7.02174 50.625 7.01363 50.625 7.00819C50.625 7.00547 50.625 7.00342 50.625 7.00206C50.625 7.00139 50.625 7.00084 50.625 7.00051C50.625 7.00034 50.625 7.00021 50.625 7.00013C50.625 7.00004 50.625 7 50 7C49.375 7 49.375 7.00004 49.375 7.00013C49.375 7.00021 49.375 7.00034 49.375 7.00051C49.375 7.00086 49.375 7.00137 49.375 7.00206C49.375 7.00343 49.375 7.00546 49.375 7.00819C49.375 7.01362 49.375 7.02174 49.375 7.03248C49.375 7.05395 49.375 7.08588 49.375 7.12773C49.375 7.21144 49.375 7.33482 49.375 7.49352C49.375 7.81092 49.375 8.26962 49.375 8.83479C49.375 9.96513 49.375 11.5214 49.375 13.2249C49.375 16.632 49.375 20.6283 49.375 22.9854H50.625ZM47.9901 25.6171C49.4437 25.6177 50.625 24.4407 50.625 22.9854H49.375C49.375 23.7484 48.7554 24.3674 47.9906 24.3671L47.9901 25.6171ZM40.0056 24.3673C39.2449 24.3676 38.6333 23.7577 38.6331 23.0027L37.3831 23.0031C37.3835 24.4541 38.5607 25.6179 40.0061 25.6173L40.0056 24.3673Z" fill="#011A58"/>
<path d="M40 2.375C39.6548 2.375 39.375 2.65482 39.375 3C39.375 3.34518 39.6548 3.625 40 3.625V2.375ZM48 3.625C48.3452 3.625 48.625 3.34518 48.625 3C48.625 2.65482 48.3452 2.375 48 2.375V3.625ZM40 3.625H48V2.375H40V3.625Z" fill="#011A58"/>
<path d="M22.9265 39V30.624H28.0385V31.512H23.9345V34.32H27.7985V35.208H23.9345V38.112H28.0385V39H22.9265ZM30.8466 39C30.5106 39 30.2546 38.908 30.0786 38.724C29.9106 38.532 29.8266 38.292 29.8266 38.004V30.12H30.7866V38.16H31.6986V39H30.8466ZM33.5762 31.356C33.3682 31.356 33.2162 31.308 33.1202 31.212C33.0322 31.108 32.9882 30.976 32.9882 30.816V30.66C32.9882 30.5 33.0322 30.372 33.1202 30.276C33.2162 30.172 33.3682 30.12 33.5762 30.12C33.7842 30.12 33.9322 30.172 34.0202 30.276C34.1162 30.372 34.1642 30.5 34.1642 30.66V30.816C34.1642 30.976 34.1162 31.108 34.0202 31.212C33.9322 31.308 33.7842 31.356 33.5762 31.356ZM33.0962 32.808H34.0562V39H33.0962V32.808ZM36.0962 39V32.808H37.0562V33.816H37.1042C37.1762 33.656 37.2562 33.508 37.3442 33.372C37.4402 33.228 37.5522 33.104 37.6802 33C37.8162 32.896 37.9722 32.816 38.1482 32.76C38.3242 32.696 38.5322 32.664 38.7722 32.664C39.1802 32.664 39.5562 32.764 39.9002 32.964C40.2442 33.156 40.5002 33.476 40.6682 33.924H40.6922C40.8042 33.588 41.0122 33.296 41.3162 33.048C41.6282 32.792 42.0482 32.664 42.5762 32.664C43.2082 32.664 43.7002 32.872 44.0522 33.288C44.4122 33.696 44.5922 34.276 44.5922 35.028V39H43.6322V35.196C43.6322 34.644 43.5242 34.228 43.3082 33.948C43.0922 33.668 42.7482 33.528 42.2762 33.528C42.0842 33.528 41.9002 33.552 41.7242 33.6C41.5562 33.648 41.4042 33.72 41.2682 33.816C41.1322 33.912 41.0242 34.036 40.9442 34.188C40.8642 34.332 40.8242 34.504 40.8242 34.704V39H39.8642V35.196C39.8642 34.644 39.7562 34.228 39.5402 33.948C39.3242 33.668 38.9882 33.528 38.5322 33.528C38.3402 33.528 38.1562 33.552 37.9802 33.6C37.8042 33.648 37.6482 33.72 37.5122 33.816C37.3762 33.912 37.2642 34.036 37.1762 34.188C37.0962 34.332 37.0562 34.504 37.0562 34.704V39H36.0962ZM47.0527 31.356C46.8447 31.356 46.6927 31.308 46.5967 31.212C46.5087 31.108 46.4647 30.976 46.4647 30.816V30.66C46.4647 30.5 46.5087 30.372 46.5967 30.276C46.6927 30.172 46.8447 30.12 47.0527 30.12C47.2607 30.12 47.4087 30.172 47.4967 30.276C47.5927 30.372 47.6407 30.5 47.6407 30.66V30.816C47.6407 30.976 47.5927 31.108 47.4967 31.212C47.4087 31.308 47.2607 31.356 47.0527 31.356ZM46.5727 32.808H47.5327V39H46.5727V32.808ZM49.5727 39V32.808H50.5327V33.816H50.5807C50.7327 33.464 50.9447 33.184 51.2167 32.976C51.4967 32.768 51.8687 32.664 52.3327 32.664C52.9727 32.664 53.4767 32.872 53.8447 33.288C54.2207 33.696 54.4087 34.276 54.4087 35.028V39H53.4487V35.196C53.4487 34.084 52.9807 33.528 52.0447 33.528C51.8527 33.528 51.6647 33.552 51.4807 33.6C51.3047 33.648 51.1447 33.72 51.0007 33.816C50.8567 33.912 50.7407 34.036 50.6527 34.188C50.5727 34.332 50.5327 34.504 50.5327 34.704V39H49.5727ZM60.893 39C60.533 39 60.273 38.904 60.113 38.712C59.961 38.52 59.865 38.28 59.825 37.992H59.765C59.629 38.376 59.405 38.664 59.093 38.856C58.781 39.048 58.409 39.144 57.977 39.144C57.321 39.144 56.809 38.976 56.441 38.64C56.081 38.304 55.901 37.848 55.901 37.272C55.901 36.688 56.113 36.24 56.537 35.928C56.969 35.616 57.637 35.46 58.541 35.46H59.765V34.848C59.765 34.408 59.645 34.072 59.405 33.84C59.165 33.608 58.797 33.492 58.301 33.492C57.925 33.492 57.609 33.576 57.353 33.744C57.105 33.912 56.897 34.136 56.729 34.416L56.153 33.876C56.321 33.54 56.589 33.256 56.957 33.024C57.325 32.784 57.789 32.664 58.349 32.664C59.101 32.664 59.685 32.848 60.101 33.216C60.517 33.584 60.725 34.096 60.725 34.752V38.16H61.433V39H60.893ZM58.133 38.328C58.373 38.328 58.593 38.3 58.793 38.244C58.993 38.188 59.165 38.108 59.309 38.004C59.453 37.9 59.565 37.78 59.645 37.644C59.725 37.508 59.765 37.36 59.765 37.2V36.18H58.493C57.941 36.18 57.537 36.26 57.281 36.42C57.033 36.58 56.909 36.812 56.909 37.116V37.368C56.909 37.672 57.017 37.908 57.233 38.076C57.457 38.244 57.757 38.328 58.133 38.328ZM62.8032 39V32.808H63.7632V33.948H63.8232C63.9352 33.652 64.1352 33.388 64.4232 33.156C64.7112 32.924 65.1072 32.808 65.6112 32.808H65.9832V33.768H65.4192C64.8992 33.768 64.4912 33.868 64.1952 34.068C63.9072 34.26 63.7632 34.504 63.7632 34.8V39H62.8032Z" fill="#011A58"/>
</svg>
