<svg width="215" height="460" viewBox="0 0 215 460" fill="none" xmlns="http://www.w3.org/2000/svg">
<path fill-rule="evenodd" clip-rule="evenodd" d="M71.9091 162.637H121.364C122.135 162.637 122.875 162.943 123.421 163.489C123.966 164.034 124.273 164.774 124.273 165.546V206.273C124.273 207.045 123.966 207.785 123.421 208.33C122.875 208.876 122.135 209.182 121.364 209.182H71.9091C71.1376 209.182 70.3976 208.876 69.8521 208.33C69.3065 207.785 69 207.045 69 206.273V165.546C69 164.774 69.3065 164.034 69.8521 163.489C70.3976 162.943 71.1376 162.637 71.9091 162.637V162.637Z" fill="#011A58" stroke="white" stroke-width="4" stroke-linecap="round" stroke-linejoin="round"/>
<path fill-rule="evenodd" clip-rule="evenodd" d="M80.6366 155H130.091C130.863 155 131.603 155.306 132.148 155.852C132.694 156.398 133 157.138 133 157.909V198.636C133 199.408 132.694 200.148 132.148 200.693C131.603 201.239 130.863 201.545 130.091 201.545H80.6366C79.8651 201.545 79.1252 201.239 78.5796 200.693C78.034 200.148 77.7275 199.408 77.7275 198.636V157.909C77.7275 157.138 78.034 156.398 78.5796 155.852C79.1252 155.306 79.8651 155 80.6366 155V155Z" fill="#011A58" stroke="white" stroke-width="4" stroke-linecap="round" stroke-linejoin="round"/>
<path d="M91.5461 169.547C92.7511 169.547 93.7279 168.57 93.7279 167.365C93.7279 166.16 92.7511 165.184 91.5461 165.184C90.3411 165.184 89.3643 166.16 89.3643 167.365C89.3643 168.57 90.3411 169.547 91.5461 169.547Z" fill="#011A58" stroke="white" stroke-width="3" stroke-linecap="round" stroke-linejoin="round"/>
<path fill-rule="evenodd" clip-rule="evenodd" d="M92.273 178.274L99.5457 184.092L108.273 173.91L133 192.819V198.637C133 199.409 132.694 200.149 132.148 200.694C131.603 201.24 130.863 201.547 130.091 201.547H80.6366C79.8651 201.547 79.1252 201.24 78.5796 200.694C78.034 200.149 77.7275 199.409 77.7275 198.637V192.819L92.273 178.274Z" fill="#011A58" stroke="white" stroke-width="4" stroke-linejoin="round"/>
<path d="M45.2819 257.192C44.5459 257.192 43.8793 257.069 43.2819 256.824C42.6846 256.579 42.1726 256.211 41.7459 255.72C41.3299 255.229 41.0046 254.627 40.7699 253.912C40.5353 253.197 40.4179 252.365 40.4179 251.416C40.4179 250.477 40.5353 249.651 40.7699 248.936C41.0046 248.211 41.3299 247.603 41.7459 247.112C42.1726 246.621 42.6846 246.253 43.2819 246.008C43.8793 245.763 44.5459 245.64 45.2819 245.64C46.0179 245.64 46.6846 245.763 47.2819 246.008C47.8793 246.253 48.3913 246.621 48.8179 247.112C49.2446 247.603 49.5699 248.211 49.7939 248.936C50.0286 249.651 50.1459 250.477 50.1459 251.416C50.1459 252.365 50.0286 253.197 49.7939 253.912C49.5699 254.627 49.2446 255.229 48.8179 255.72C48.3913 256.211 47.8793 256.579 47.2819 256.824C46.6846 257.069 46.0179 257.192 45.2819 257.192ZM45.2819 255.32C46.0819 255.32 46.7166 255.053 47.1859 254.52C47.6659 253.987 47.9059 253.24 47.9059 252.28V250.552C47.9059 249.592 47.6659 248.845 47.1859 248.312C46.7166 247.779 46.0819 247.512 45.2819 247.512C44.4819 247.512 43.8419 247.779 43.3619 248.312C42.8926 248.845 42.6579 249.592 42.6579 250.552V252.28C42.6579 253.24 42.8926 253.987 43.3619 254.52C43.8419 255.053 44.4819 255.32 45.2819 255.32ZM52.1606 245.16H54.2086V250.024H54.2726C54.4219 249.544 54.7046 249.165 55.1206 248.888C55.5366 248.6 56.0219 248.456 56.5766 248.456C57.6432 248.456 58.4539 248.835 59.0086 249.592C59.5739 250.339 59.8566 251.411 59.8566 252.808C59.8566 254.216 59.5739 255.299 59.0086 256.056C58.4539 256.813 57.6432 257.192 56.5766 257.192C56.0219 257.192 55.5366 257.048 55.1206 256.76C54.7152 256.472 54.4326 256.088 54.2726 255.608H54.2086V257H52.1606V245.16ZM55.9206 255.496C56.4539 255.496 56.8859 255.32 57.2166 254.968C57.5472 254.616 57.7126 254.141 57.7126 253.544V252.104C57.7126 251.507 57.5472 251.032 57.2166 250.68C56.8859 250.317 56.4539 250.136 55.9206 250.136C55.4299 250.136 55.0192 250.259 54.6886 250.504C54.3686 250.749 54.2086 251.075 54.2086 251.48V254.136C54.2086 254.573 54.3686 254.909 54.6886 255.144C55.0192 255.379 55.4299 255.496 55.9206 255.496ZM64.2686 257C63.5646 257 63.0259 256.819 62.6526 256.456C62.2899 256.083 62.1086 255.555 62.1086 254.872V250.28H60.8766V248.648H61.5166C61.8259 248.648 62.0339 248.579 62.1406 248.44C62.2579 248.291 62.3166 248.072 62.3166 247.784V246.36H64.1566V248.648H65.8686V250.28H64.1566V255.368H65.7406V257H64.2686ZM70.9584 257.192C70.3398 257.192 69.7851 257.091 69.2944 256.888C68.8144 256.675 68.4038 256.381 68.0624 256.008C67.7318 255.624 67.4758 255.165 67.2944 254.632C67.1131 254.088 67.0224 253.48 67.0224 252.808C67.0224 252.147 67.1078 251.549 67.2784 251.016C67.4598 250.483 67.7158 250.029 68.0464 249.656C68.3771 249.272 68.7824 248.979 69.2624 248.776C69.7424 248.563 70.2864 248.456 70.8944 248.456C71.5451 248.456 72.1104 248.568 72.5904 248.792C73.0704 249.016 73.4651 249.32 73.7744 249.704C74.0838 250.088 74.3131 250.536 74.4624 251.048C74.6224 251.549 74.7024 252.088 74.7024 252.664V253.336H69.1504V253.544C69.1504 254.152 69.3211 254.643 69.6624 255.016C70.0038 255.379 70.5104 255.56 71.1824 255.56C71.6944 255.56 72.1104 255.453 72.4304 255.24C72.7611 255.027 73.0544 254.755 73.3104 254.424L74.4144 255.656C74.0731 256.136 73.6038 256.515 73.0064 256.792C72.4198 257.059 71.7371 257.192 70.9584 257.192ZM70.9264 249.992C70.3824 249.992 69.9504 250.173 69.6304 250.536C69.3104 250.899 69.1504 251.368 69.1504 251.944V252.072H72.5744V251.928C72.5744 251.352 72.4304 250.888 72.1424 250.536C71.8651 250.173 71.4598 249.992 70.9264 249.992ZM76.5043 257V248.648H78.5523V250.04H78.6323C78.803 249.592 79.0696 249.219 79.4323 248.92C79.8056 248.611 80.3176 248.456 80.9683 248.456C81.8323 248.456 82.4936 248.739 82.9523 249.304C83.411 249.869 83.6403 250.675 83.6403 251.72V257H81.5923V251.928C81.5923 251.331 81.4856 250.883 81.2723 250.584C81.059 250.285 80.707 250.136 80.2163 250.136C80.003 250.136 79.795 250.168 79.5923 250.232C79.4003 250.285 79.2243 250.371 79.0643 250.488C78.915 250.595 78.7923 250.733 78.6963 250.904C78.6003 251.064 78.5523 251.256 78.5523 251.48V257H76.5043ZM89.2866 257.192C88.6679 257.192 88.1132 257.091 87.6226 256.888C87.1426 256.675 86.7319 256.381 86.3906 256.008C86.0599 255.624 85.8039 255.165 85.6226 254.632C85.4412 254.088 85.3506 253.48 85.3506 252.808C85.3506 252.147 85.4359 251.549 85.6066 251.016C85.7879 250.483 86.0439 250.029 86.3746 249.656C86.7052 249.272 87.1106 248.979 87.5906 248.776C88.0706 248.563 88.6146 248.456 89.2226 248.456C89.8732 248.456 90.4386 248.568 90.9186 248.792C91.3986 249.016 91.7932 249.32 92.1026 249.704C92.4119 250.088 92.6412 250.536 92.7906 251.048C92.9506 251.549 93.0306 252.088 93.0306 252.664V253.336H87.4786V253.544C87.4786 254.152 87.6492 254.643 87.9906 255.016C88.3319 255.379 88.8386 255.56 89.5106 255.56C90.0226 255.56 90.4386 255.453 90.7586 255.24C91.0892 255.027 91.3826 254.755 91.6386 254.424L92.7426 255.656C92.4012 256.136 91.9319 256.515 91.3346 256.792C90.7479 257.059 90.0652 257.192 89.2866 257.192ZM89.2546 249.992C88.7106 249.992 88.2786 250.173 87.9586 250.536C87.6386 250.899 87.4786 251.368 87.4786 251.944V252.072H90.9026V251.928C90.9026 251.352 90.7586 250.888 90.4706 250.536C90.1932 250.173 89.7879 249.992 89.2546 249.992ZM94.8324 257V248.648H96.8804V250.376H96.9604C97.0138 250.152 97.0938 249.939 97.2004 249.736C97.3178 249.523 97.4671 249.336 97.6484 249.176C97.8298 249.016 98.0431 248.888 98.2884 248.792C98.5444 248.696 98.8378 248.648 99.1684 248.648H99.6164V250.584H98.9764C98.2831 250.584 97.7604 250.685 97.4084 250.888C97.0564 251.091 96.8804 251.421 96.8804 251.88V257H94.8324ZM109.407 247.704V257H107.295V247.704H104.127V245.832H112.575V247.704H109.407ZM115.2 247.432C114.774 247.432 114.464 247.336 114.272 247.144C114.091 246.952 114 246.707 114 246.408V246.088C114 245.789 114.091 245.544 114.272 245.352C114.464 245.16 114.774 245.064 115.2 245.064C115.616 245.064 115.92 245.16 116.112 245.352C116.304 245.544 116.4 245.789 116.4 246.088V246.408C116.4 246.707 116.304 246.952 116.112 247.144C115.92 247.336 115.616 247.432 115.2 247.432ZM114.176 248.648H116.224V257H114.176V248.648ZM121.894 257.192C121.275 257.192 120.726 257.091 120.246 256.888C119.766 256.685 119.361 256.392 119.03 256.008C118.71 255.624 118.465 255.165 118.294 254.632C118.123 254.088 118.038 253.48 118.038 252.808C118.038 252.136 118.123 251.533 118.294 251C118.465 250.467 118.71 250.013 119.03 249.64C119.361 249.256 119.766 248.963 120.246 248.76C120.726 248.557 121.275 248.456 121.894 248.456C122.737 248.456 123.43 248.643 123.974 249.016C124.529 249.389 124.929 249.907 125.174 250.568L123.494 251.32C123.398 250.968 123.217 250.68 122.95 250.456C122.694 250.221 122.342 250.104 121.894 250.104C121.318 250.104 120.886 250.285 120.598 250.648C120.321 251.011 120.182 251.485 120.182 252.072V253.592C120.182 254.179 120.321 254.653 120.598 255.016C120.886 255.368 121.318 255.544 121.894 255.544C122.385 255.544 122.763 255.421 123.03 255.176C123.297 254.92 123.505 254.605 123.654 254.232L125.222 254.984C124.945 255.72 124.523 256.275 123.958 256.648C123.393 257.011 122.705 257.192 121.894 257.192ZM126.801 245.16H128.849V252.296H128.929L130.033 250.792L131.905 248.648H134.225L131.345 251.88L134.529 257H132.097L129.953 253.256L128.849 254.456V257H126.801V245.16ZM138.771 257.192C138.152 257.192 137.598 257.091 137.107 256.888C136.627 256.675 136.216 256.381 135.875 256.008C135.544 255.624 135.288 255.165 135.107 254.632C134.926 254.088 134.835 253.48 134.835 252.808C134.835 252.147 134.92 251.549 135.091 251.016C135.272 250.483 135.528 250.029 135.859 249.656C136.19 249.272 136.595 248.979 137.075 248.776C137.555 248.563 138.099 248.456 138.707 248.456C139.358 248.456 139.923 248.568 140.403 248.792C140.883 249.016 141.278 249.32 141.587 249.704C141.896 250.088 142.126 250.536 142.275 251.048C142.435 251.549 142.515 252.088 142.515 252.664V253.336H136.963V253.544C136.963 254.152 137.134 254.643 137.475 255.016C137.816 255.379 138.323 255.56 138.995 255.56C139.507 255.56 139.923 255.453 140.243 255.24C140.574 255.027 140.867 254.755 141.123 254.424L142.227 255.656C141.886 256.136 141.416 256.515 140.819 256.792C140.232 257.059 139.55 257.192 138.771 257.192ZM138.739 249.992C138.195 249.992 137.763 250.173 137.443 250.536C137.123 250.899 136.963 251.368 136.963 251.944V252.072H140.387V251.928C140.387 251.352 140.243 250.888 139.955 250.536C139.678 250.173 139.272 249.992 138.739 249.992ZM146.925 257C146.221 257 145.682 256.819 145.309 256.456C144.946 256.083 144.765 255.555 144.765 254.872V250.28H143.533V248.648H144.173C144.482 248.648 144.69 248.579 144.797 248.44C144.914 248.291 144.973 248.072 144.973 247.784V246.36H146.813V248.648H148.525V250.28H146.813V255.368H148.397V257H146.925ZM159.266 255.608H159.186C159.037 256.088 158.754 256.472 158.338 256.76C157.922 257.048 157.437 257.192 156.882 257.192C155.826 257.192 155.016 256.813 154.45 256.056C153.896 255.299 153.618 254.216 153.618 252.808C153.618 251.411 153.896 250.339 154.45 249.592C155.016 248.835 155.826 248.456 156.882 248.456C157.437 248.456 157.922 248.6 158.338 248.888C158.754 249.165 159.037 249.544 159.186 250.024H159.266V245.16H161.314V257H159.266V255.608ZM157.538 255.496C158.029 255.496 158.44 255.379 158.77 255.144C159.101 254.909 159.266 254.573 159.266 254.136V251.48C159.266 251.075 159.101 250.749 158.77 250.504C158.44 250.259 158.029 250.136 157.538 250.136C157.005 250.136 156.573 250.317 156.242 250.68C155.922 251.032 155.762 251.507 155.762 252.104V253.544C155.762 254.141 155.922 254.616 156.242 254.968C156.573 255.32 157.005 255.496 157.538 255.496ZM167.052 257.192C166.434 257.192 165.879 257.091 165.388 256.888C164.908 256.675 164.498 256.381 164.156 256.008C163.826 255.624 163.57 255.165 163.388 254.632C163.207 254.088 163.116 253.48 163.116 252.808C163.116 252.147 163.202 251.549 163.372 251.016C163.554 250.483 163.81 250.029 164.14 249.656C164.471 249.272 164.876 248.979 165.356 248.776C165.836 248.563 166.38 248.456 166.988 248.456C167.639 248.456 168.204 248.568 168.684 248.792C169.164 249.016 169.559 249.32 169.868 249.704C170.178 250.088 170.407 250.536 170.556 251.048C170.716 251.549 170.796 252.088 170.796 252.664V253.336H165.244V253.544C165.244 254.152 165.415 254.643 165.756 255.016C166.098 255.379 166.604 255.56 167.276 255.56C167.788 255.56 168.204 255.453 168.524 255.24C168.855 255.027 169.148 254.755 169.404 254.424L170.508 255.656C170.167 256.136 169.698 256.515 169.1 256.792C168.514 257.059 167.831 257.192 167.052 257.192ZM167.02 249.992C166.476 249.992 166.044 250.173 165.724 250.536C165.404 250.899 165.244 251.368 165.244 251.944V252.072H168.668V251.928C168.668 251.352 168.524 250.888 168.236 250.536C167.959 250.173 167.554 249.992 167.02 249.992ZM87.1351 276.272H87.0711C86.9751 276.816 86.6711 277.275 86.1591 277.648C85.6578 278.011 84.9858 278.192 84.1431 278.192C83.4818 278.192 82.8685 278.069 82.3031 277.824C81.7485 277.579 81.2631 277.216 80.8471 276.736C80.4418 276.245 80.1218 275.643 79.8871 274.928C79.6525 274.213 79.5351 273.387 79.5351 272.448C79.5351 271.509 79.6525 270.683 79.8871 269.968C80.1325 269.243 80.4738 268.635 80.9111 268.144C81.3485 267.653 81.8711 267.28 82.4791 267.024C83.0871 266.768 83.7645 266.64 84.5111 266.64C85.5138 266.64 86.3671 266.859 87.0711 267.296C87.7751 267.733 88.3298 268.363 88.7351 269.184L87.0231 270.192C86.8205 269.712 86.5165 269.312 86.1111 268.992C85.7165 268.672 85.1831 268.512 84.5111 268.512C83.6791 268.512 83.0125 268.768 82.5111 269.28C82.0205 269.781 81.7751 270.528 81.7751 271.52V273.312C81.7751 274.293 82.0258 275.04 82.5271 275.552C83.0285 276.064 83.7005 276.32 84.5431 276.32C84.8738 276.32 85.1831 276.283 85.4711 276.208C85.7591 276.123 86.0098 276 86.2231 275.84C86.4365 275.68 86.6071 275.483 86.7351 275.248C86.8631 275.013 86.9271 274.736 86.9271 274.416V273.696H84.7351V271.92H88.9591V278H87.1351V276.272ZM97.4218 278C96.9738 278 96.6164 277.872 96.3498 277.616C96.0938 277.349 95.9338 276.997 95.8698 276.56H95.7738C95.6351 277.104 95.3524 277.515 94.9258 277.792C94.4991 278.059 93.9711 278.192 93.3418 278.192C92.4884 278.192 91.8324 277.968 91.3738 277.52C90.9151 277.072 90.6858 276.475 90.6858 275.728C90.6858 274.864 90.9951 274.224 91.6138 273.808C92.2324 273.381 93.1124 273.168 94.2538 273.168H95.6778V272.56C95.6778 272.091 95.5551 271.728 95.3098 271.472C95.0644 271.216 94.6698 271.088 94.1258 271.088C93.6458 271.088 93.2564 271.195 92.9578 271.408C92.6698 271.611 92.4244 271.856 92.2218 272.144L91.0058 271.056C91.3151 270.576 91.7258 270.192 92.2378 269.904C92.7498 269.605 93.4271 269.456 94.2698 269.456C95.4004 269.456 96.2591 269.712 96.8458 270.224C97.4324 270.736 97.7258 271.472 97.7258 272.432V276.368H98.5578V278H97.4218ZM94.0298 276.704C94.4884 276.704 94.8778 276.603 95.1978 276.4C95.5178 276.197 95.6778 275.899 95.6778 275.504V274.4H94.3658C93.2991 274.4 92.7658 274.741 92.7658 275.424V275.696C92.7658 276.037 92.8724 276.293 93.0858 276.464C93.3098 276.624 93.6244 276.704 94.0298 276.704ZM102.263 278C101.559 278 101.042 277.824 100.711 277.472C100.381 277.12 100.215 276.624 100.215 275.984V266.16H102.263V276.368H103.367V278H102.263ZM108.294 278.192C107.676 278.192 107.121 278.091 106.63 277.888C106.15 277.675 105.74 277.381 105.398 277.008C105.068 276.624 104.812 276.165 104.63 275.632C104.449 275.088 104.358 274.48 104.358 273.808C104.358 273.147 104.444 272.549 104.614 272.016C104.796 271.483 105.052 271.029 105.382 270.656C105.713 270.272 106.118 269.979 106.598 269.776C107.078 269.563 107.622 269.456 108.23 269.456C108.881 269.456 109.446 269.568 109.926 269.792C110.406 270.016 110.801 270.32 111.11 270.704C111.42 271.088 111.649 271.536 111.798 272.048C111.958 272.549 112.038 273.088 112.038 273.664V274.336H106.486V274.544C106.486 275.152 106.657 275.643 106.998 276.016C107.34 276.379 107.846 276.56 108.518 276.56C109.03 276.56 109.446 276.453 109.766 276.24C110.097 276.027 110.39 275.755 110.646 275.424L111.75 276.656C111.409 277.136 110.94 277.515 110.342 277.792C109.756 278.059 109.073 278.192 108.294 278.192ZM108.262 270.992C107.718 270.992 107.286 271.173 106.966 271.536C106.646 271.899 106.486 272.368 106.486 272.944V273.072H109.91V272.928C109.91 272.352 109.766 271.888 109.478 271.536C109.201 271.173 108.796 270.992 108.262 270.992ZM113.84 278V269.648H115.888V271.376H115.968C116.022 271.152 116.102 270.939 116.208 270.736C116.326 270.523 116.475 270.336 116.656 270.176C116.838 270.016 117.051 269.888 117.296 269.792C117.552 269.696 117.846 269.648 118.176 269.648H118.624V271.584H117.984C117.291 271.584 116.768 271.685 116.416 271.888C116.064 272.091 115.888 272.421 115.888 272.88V278H113.84ZM120.122 278V269.648H122.17V278H120.122ZM121.37 268.704L120.138 268.112L121.658 265.12L123.386 265.968L121.37 268.704ZM130.687 278C130.239 278 129.882 277.872 129.615 277.616C129.359 277.349 129.199 276.997 129.135 276.56H129.039C128.901 277.104 128.618 277.515 128.191 277.792C127.765 278.059 127.237 278.192 126.607 278.192C125.754 278.192 125.098 277.968 124.639 277.52C124.181 277.072 123.951 276.475 123.951 275.728C123.951 274.864 124.261 274.224 124.879 273.808C125.498 273.381 126.378 273.168 127.519 273.168H128.943V272.56C128.943 272.091 128.821 271.728 128.575 271.472C128.33 271.216 127.935 271.088 127.391 271.088C126.911 271.088 126.522 271.195 126.223 271.408C125.935 271.611 125.69 271.856 125.487 272.144L124.271 271.056C124.581 270.576 124.991 270.192 125.503 269.904C126.015 269.605 126.693 269.456 127.535 269.456C128.666 269.456 129.525 269.712 130.111 270.224C130.698 270.736 130.991 271.472 130.991 272.432V276.368H131.823V278H130.687ZM127.295 276.704C127.754 276.704 128.143 276.603 128.463 276.4C128.783 276.197 128.943 275.899 128.943 275.504V274.4H127.631C126.565 274.4 126.031 274.741 126.031 275.424V275.696C126.031 276.037 126.138 276.293 126.351 276.464C126.575 276.624 126.89 276.704 127.295 276.704Z" fill="white"/>
</svg>
