<svg width="88" height="38" viewBox="0 0 88 38" fill="none" xmlns="http://www.w3.org/2000/svg">
<path d="M47.6 0.605469L39.2062 15.1532M40.4 0.605469L32 15.1532L35.6 21.3932H52.4L56 15.1532L47.6 0.605469H40.4ZM32 15.1532H48.7938H32ZM52.4 21.3932L44 6.84547L52.4 21.3932Z" stroke="#011A58" stroke-linecap="round" stroke-linejoin="round"/>
<path d="M30.8056 33.1705H30.7696C30.6656 33.5625 30.4096 33.8905 30.0016 34.1545C29.6016 34.4105 29.0816 34.5385 28.4416 34.5385C27.9296 34.5385 27.4576 34.4465 27.0256 34.2625C26.6016 34.0705 26.2376 33.7945 25.9336 33.4345C25.6296 33.0665 25.3896 32.6145 25.2136 32.0785C25.0456 31.5345 24.9616 30.9105 24.9616 30.2065C24.9616 29.5105 25.0456 28.8945 25.2136 28.3585C25.3816 27.8145 25.6216 27.3625 25.9336 27.0025C26.2456 26.6345 26.6216 26.3545 27.0616 26.1625C27.5016 25.9705 27.9896 25.8745 28.5256 25.8745C29.2776 25.8745 29.9056 26.0425 30.4096 26.3785C30.9136 26.7145 31.3016 27.1585 31.5736 27.7105L30.7456 28.2145C30.5536 27.7665 30.2656 27.4145 29.8816 27.1585C29.5056 26.9025 29.0536 26.7745 28.5256 26.7745C28.1576 26.7745 27.8216 26.8425 27.5176 26.9785C27.2136 27.1065 26.9496 27.2905 26.7256 27.5305C26.5096 27.7705 26.3416 28.0585 26.2216 28.3945C26.1016 28.7305 26.0416 29.1065 26.0416 29.5225V30.8785C26.0416 31.2945 26.1016 31.6745 26.2216 32.0185C26.3416 32.3545 26.5096 32.6425 26.7256 32.8825C26.9496 33.1225 27.2216 33.3105 27.5416 33.4465C27.8616 33.5745 28.2216 33.6385 28.6216 33.6385C28.9096 33.6385 29.1816 33.6025 29.4376 33.5305C29.7016 33.4505 29.9296 33.3345 30.1216 33.1825C30.3216 33.0305 30.4776 32.8425 30.5896 32.6185C30.7016 32.3865 30.7576 32.1145 30.7576 31.8025V30.9745H28.9096V30.0865H31.7416V34.3945H30.8056V33.1705ZM34.2414 34.5385C33.9854 34.5385 33.7974 34.4745 33.6774 34.3465C33.5654 34.2185 33.5094 34.0505 33.5094 33.8425V33.6865C33.5094 33.4785 33.5654 33.3105 33.6774 33.1825C33.7974 33.0545 33.9854 32.9905 34.2414 32.9905C34.4974 32.9905 34.6814 33.0545 34.7934 33.1825C34.9134 33.3105 34.9734 33.4785 34.9734 33.6865V33.8425C34.9734 34.0505 34.9134 34.2185 34.7934 34.3465C34.6814 34.4745 34.4974 34.5385 34.2414 34.5385ZM36.9949 26.0185H39.8029C40.3229 26.0185 40.7949 26.1065 41.2189 26.2825C41.6429 26.4585 42.0029 26.7225 42.2989 27.0745C42.6029 27.4185 42.8349 27.8545 42.9949 28.3825C43.1549 28.9025 43.2349 29.5105 43.2349 30.2065C43.2349 30.9025 43.1549 31.5145 42.9949 32.0425C42.8349 32.5625 42.6029 32.9985 42.2989 33.3505C42.0029 33.6945 41.6429 33.9545 41.2189 34.1305C40.7949 34.3065 40.3229 34.3945 39.8029 34.3945H36.9949V26.0185ZM39.8029 33.5065C40.1469 33.5065 40.4629 33.4505 40.7509 33.3385C41.0389 33.2185 41.2869 33.0465 41.4949 32.8225C41.7029 32.5985 41.8629 32.3265 41.9749 32.0065C42.0949 31.6785 42.1549 31.3065 42.1549 30.8905V29.5225C42.1549 29.1065 42.0949 28.7385 41.9749 28.4185C41.8629 28.0905 41.7029 27.8145 41.4949 27.5905C41.2869 27.3665 41.0389 27.1985 40.7509 27.0865C40.4629 26.9665 40.1469 26.9065 39.8029 26.9065H38.0029V33.5065H39.8029ZM44.9497 34.3945V28.2025H45.9097V29.3425H45.9697C46.0817 29.0465 46.2817 28.7825 46.5697 28.5505C46.8577 28.3185 47.2537 28.2025 47.7577 28.2025H48.1297V29.1625H47.5657C47.0457 29.1625 46.6377 29.2625 46.3417 29.4625C46.0537 29.6545 45.9097 29.8985 45.9097 30.1945V34.3945H44.9497ZM49.8359 26.7505C49.6279 26.7505 49.4759 26.7025 49.3799 26.6065C49.2919 26.5025 49.2479 26.3705 49.2479 26.2105V26.0545C49.2479 25.8945 49.2919 25.7665 49.3799 25.6705C49.4759 25.5665 49.6279 25.5145 49.8359 25.5145C50.0439 25.5145 50.1919 25.5665 50.2799 25.6705C50.3759 25.7665 50.4239 25.8945 50.4239 26.0545V26.2105C50.4239 26.3705 50.3759 26.5025 50.2799 26.6065C50.1919 26.7025 50.0439 26.7505 49.8359 26.7505ZM49.3559 28.2025H50.3159V34.3945H49.3559V28.2025ZM53.7239 34.3945L51.5519 28.2025H52.5119L53.5919 31.2745L54.2639 33.3865H54.3239L54.9959 31.2745L56.0999 28.2025H57.0239L54.8399 34.3945H53.7239ZM60.4964 34.5385C60.0724 34.5385 59.6884 34.4625 59.3444 34.3105C59.0084 34.1585 58.7164 33.9425 58.4684 33.6625C58.2284 33.3745 58.0404 33.0345 57.9044 32.6425C57.7764 32.2425 57.7124 31.7945 57.7124 31.2985C57.7124 30.8105 57.7764 30.3665 57.9044 29.9665C58.0404 29.5665 58.2284 29.2265 58.4684 28.9465C58.7164 28.6585 59.0084 28.4385 59.3444 28.2865C59.6884 28.1345 60.0724 28.0585 60.4964 28.0585C60.9124 28.0585 61.2844 28.1345 61.6124 28.2865C61.9404 28.4385 62.2204 28.6505 62.4524 28.9225C62.6844 29.1865 62.8604 29.5025 62.9804 29.8705C63.1084 30.2385 63.1724 30.6425 63.1724 31.0825V31.5385H58.7204V31.8265C58.7204 32.0905 58.7604 32.3385 58.8404 32.5705C58.9284 32.7945 59.0484 32.9905 59.2004 33.1585C59.3604 33.3265 59.5524 33.4585 59.7764 33.5545C60.0084 33.6505 60.2684 33.6985 60.5564 33.6985C60.9484 33.6985 61.2884 33.6065 61.5764 33.4225C61.8724 33.2385 62.1004 32.9745 62.2604 32.6305L62.9444 33.1225C62.7444 33.5465 62.4324 33.8905 62.0084 34.1545C61.5844 34.4105 61.0804 34.5385 60.4964 34.5385ZM60.4964 28.8625C60.2324 28.8625 59.9924 28.9105 59.7764 29.0065C59.5604 29.0945 59.3724 29.2225 59.2124 29.3905C59.0604 29.5585 58.9404 29.7585 58.8524 29.9905C58.7644 30.2145 58.7204 30.4625 58.7204 30.7345V30.8185H62.1404V30.6865C62.1404 30.1345 61.9884 29.6945 61.6844 29.3665C61.3884 29.0305 60.9924 28.8625 60.4964 28.8625Z" fill="#011A58"/>
</svg>
