<svg width="88" height="41" viewBox="0 0 88 41" fill="none" xmlns="http://www.w3.org/2000/svg">
<path d="M32 25V1H50L56 7V25H32Z" stroke="#011A58" stroke-width="1.5" stroke-linejoin="round"/>
<path d="M48.5 1L48.5 6L39 6L39 0.999999" stroke="#011A58" stroke-width="1.25" stroke-linejoin="round"/>
<circle cx="44" cy="14" r="4.25" stroke="#011A58" stroke-width="1.5"/>
<path d="M28.6963 36.776H28.6603C28.5563 37.168 28.3003 37.496 27.8923 37.76C27.4923 38.016 26.9723 38.144 26.3323 38.144C25.8203 38.144 25.3483 38.052 24.9163 37.868C24.4923 37.676 24.1283 37.4 23.8243 37.04C23.5203 36.672 23.2803 36.22 23.1043 35.684C22.9363 35.14 22.8523 34.516 22.8523 33.812C22.8523 33.116 22.9363 32.5 23.1043 31.964C23.2723 31.42 23.5123 30.968 23.8243 30.608C24.1363 30.24 24.5123 29.96 24.9523 29.768C25.3923 29.576 25.8803 29.48 26.4163 29.48C27.1683 29.48 27.7963 29.648 28.3003 29.984C28.8043 30.32 29.1923 30.764 29.4643 31.316L28.6363 31.82C28.4443 31.372 28.1563 31.02 27.7723 30.764C27.3963 30.508 26.9443 30.38 26.4163 30.38C26.0483 30.38 25.7123 30.448 25.4083 30.584C25.1043 30.712 24.8403 30.896 24.6163 31.136C24.4003 31.376 24.2323 31.664 24.1123 32C23.9923 32.336 23.9323 32.712 23.9323 33.128V34.484C23.9323 34.9 23.9923 35.28 24.1123 35.624C24.2323 35.96 24.4003 36.248 24.6163 36.488C24.8403 36.728 25.1123 36.916 25.4323 37.052C25.7523 37.18 26.1123 37.244 26.5123 37.244C26.8003 37.244 27.0723 37.208 27.3283 37.136C27.5923 37.056 27.8203 36.94 28.0123 36.788C28.2123 36.636 28.3683 36.448 28.4803 36.224C28.5923 35.992 28.6483 35.72 28.6483 35.408V34.58H26.8003V33.692H29.6323V38H28.6963V36.776ZM35.336 36.992H35.288C35.224 37.136 35.144 37.28 35.048 37.424C34.96 37.56 34.848 37.684 34.712 37.796C34.576 37.9 34.412 37.984 34.22 38.048C34.028 38.112 33.804 38.144 33.548 38.144C32.908 38.144 32.4 37.94 32.024 37.532C31.648 37.116 31.46 36.532 31.46 35.78V31.808H32.42V35.612C32.42 36.724 32.892 37.28 33.836 37.28C34.028 37.28 34.212 37.256 34.388 37.208C34.572 37.16 34.732 37.088 34.868 36.992C35.012 36.896 35.124 36.776 35.204 36.632C35.292 36.48 35.336 36.3 35.336 36.092V31.808H36.296V38H35.336V36.992ZM42.8403 38C42.4803 38 42.2203 37.904 42.0603 37.712C41.9083 37.52 41.8123 37.28 41.7723 36.992H41.7123C41.5763 37.376 41.3523 37.664 41.0403 37.856C40.7283 38.048 40.3563 38.144 39.9243 38.144C39.2683 38.144 38.7563 37.976 38.3883 37.64C38.0283 37.304 37.8483 36.848 37.8483 36.272C37.8483 35.688 38.0603 35.24 38.4843 34.928C38.9163 34.616 39.5843 34.46 40.4883 34.46H41.7123V33.848C41.7123 33.408 41.5923 33.072 41.3523 32.84C41.1123 32.608 40.7443 32.492 40.2483 32.492C39.8723 32.492 39.5563 32.576 39.3003 32.744C39.0523 32.912 38.8443 33.136 38.6763 33.416L38.1003 32.876C38.2683 32.54 38.5363 32.256 38.9043 32.024C39.2723 31.784 39.7363 31.664 40.2963 31.664C41.0483 31.664 41.6323 31.848 42.0483 32.216C42.4643 32.584 42.6723 33.096 42.6723 33.752V37.16H43.3803V38H42.8403ZM40.0803 37.328C40.3203 37.328 40.5403 37.3 40.7403 37.244C40.9403 37.188 41.1123 37.108 41.2563 37.004C41.4003 36.9 41.5123 36.78 41.5923 36.644C41.6723 36.508 41.7123 36.36 41.7123 36.2V35.18H40.4403C39.8883 35.18 39.4843 35.26 39.2283 35.42C38.9803 35.58 38.8563 35.812 38.8563 36.116V36.368C38.8563 36.672 38.9643 36.908 39.1803 37.076C39.4043 37.244 39.7043 37.328 40.0803 37.328ZM44.7505 38V31.808H45.7105V32.948H45.7705C45.8825 32.652 46.0825 32.388 46.3705 32.156C46.6585 31.924 47.0545 31.808 47.5585 31.808H47.9305V32.768H47.3665C46.8465 32.768 46.4385 32.868 46.1425 33.068C45.8545 33.26 45.7105 33.504 45.7105 33.8V38H44.7505ZM53.0464 36.992H52.9984C52.6224 37.76 52.0184 38.144 51.1864 38.144C50.8024 38.144 50.4544 38.068 50.1424 37.916C49.8304 37.764 49.5624 37.548 49.3384 37.268C49.1224 36.988 48.9544 36.648 48.8344 36.248C48.7224 35.848 48.6664 35.4 48.6664 34.904C48.6664 34.408 48.7224 33.96 48.8344 33.56C48.9544 33.16 49.1224 32.82 49.3384 32.54C49.5624 32.26 49.8304 32.044 50.1424 31.892C50.4544 31.74 50.8024 31.664 51.1864 31.664C51.6184 31.664 51.9864 31.76 52.2904 31.952C52.6024 32.136 52.8384 32.424 52.9984 32.816H53.0464V29.12H54.0064V38H53.0464V36.992ZM51.4504 37.28C51.6664 37.28 51.8704 37.252 52.0624 37.196C52.2624 37.14 52.4344 37.06 52.5784 36.956C52.7224 36.844 52.8344 36.712 52.9144 36.56C53.0024 36.4 53.0464 36.22 53.0464 36.02V33.716C53.0464 33.548 53.0024 33.392 52.9144 33.248C52.8344 33.096 52.7224 32.968 52.5784 32.864C52.4344 32.76 52.2624 32.68 52.0624 32.624C51.8704 32.56 51.6664 32.528 51.4504 32.528C50.9064 32.528 50.4784 32.7 50.1664 33.044C49.8544 33.38 49.6984 33.824 49.6984 34.376V35.432C49.6984 35.984 49.8544 36.432 50.1664 36.776C50.4784 37.112 50.9064 37.28 51.4504 37.28ZM60.5473 38C60.1873 38 59.9273 37.904 59.7673 37.712C59.6153 37.52 59.5193 37.28 59.4793 36.992H59.4193C59.2833 37.376 59.0593 37.664 58.7473 37.856C58.4353 38.048 58.0633 38.144 57.6313 38.144C56.9753 38.144 56.4633 37.976 56.0953 37.64C55.7353 37.304 55.5553 36.848 55.5553 36.272C55.5553 35.688 55.7673 35.24 56.1913 34.928C56.6233 34.616 57.2913 34.46 58.1953 34.46H59.4193V33.848C59.4193 33.408 59.2993 33.072 59.0593 32.84C58.8193 32.608 58.4513 32.492 57.9553 32.492C57.5793 32.492 57.2633 32.576 57.0073 32.744C56.7593 32.912 56.5513 33.136 56.3833 33.416L55.8073 32.876C55.9753 32.54 56.2433 32.256 56.6113 32.024C56.9793 31.784 57.4433 31.664 58.0033 31.664C58.7553 31.664 59.3393 31.848 59.7553 32.216C60.1713 32.584 60.3793 33.096 60.3793 33.752V37.16H61.0873V38H60.5473ZM57.7873 37.328C58.0273 37.328 58.2473 37.3 58.4473 37.244C58.6473 37.188 58.8193 37.108 58.9633 37.004C59.1073 36.9 59.2193 36.78 59.2993 36.644C59.3793 36.508 59.4193 36.36 59.4193 36.2V35.18H58.1473C57.5953 35.18 57.1913 35.26 56.9353 35.42C56.6873 35.58 56.5633 35.812 56.5633 36.116V36.368C56.5633 36.672 56.6713 36.908 56.8873 37.076C57.1113 37.244 57.4113 37.328 57.7873 37.328ZM62.4575 38V31.808H63.4175V32.948H63.4775C63.5895 32.652 63.7895 32.388 64.0775 32.156C64.3655 31.924 64.7615 31.808 65.2655 31.808H65.6375V32.768H65.0735C64.5535 32.768 64.1455 32.868 63.8495 33.068C63.5615 33.26 63.4175 33.504 63.4175 33.8V38H62.4575Z" fill="#011A58"/>
</svg>
