<svg width="80" height="80" viewBox="0 0 80 80" fill="none" xmlns="http://www.w3.org/2000/svg">
<rect width="80" height="80" rx="40" fill="white"/>
<g clip-path="url(#clip0_3915_67275)">
<path d="M16.2337 55.8808L18.7034 60.1465C19.2166 61.0447 19.9542 61.7503 20.8202 62.2635C23.3008 59.1148 25.0272 56.6985 26.0002 55.0148C26.9874 53.3062 28.2008 50.6332 29.6404 46.9965C25.7607 46.4857 22.8207 46.2305 20.8204 46.2305C18.9005 46.2305 15.9605 46.4857 12 46.9965C12 47.9907 12.2566 48.985 12.7698 49.8832L16.2337 55.8808Z" fill="#0066DA"/>
<path d="M59.1802 62.2635C60.0465 61.7503 60.7841 61.0447 61.2971 60.1467L62.3234 58.3827L67.2309 49.8832C67.7346 49.0044 67.9998 48.0094 68.0004 46.9965C64.017 46.4857 61.0825 46.2305 59.1964 46.2305C57.1695 46.2305 54.2347 46.4857 50.3922 46.9965C51.8147 50.6532 53.0121 53.3261 53.9845 55.0148C54.9651 56.7187 56.697 59.1347 59.1802 62.2635Z" fill="#EA4335"/>
<path d="M40.0702 29.0368C42.9402 25.5707 44.9182 22.8978 46.0038 21.0185C46.8782 19.5052 47.8404 17.0889 48.8904 13.7698C48.0244 13.2566 47.0302 13 46.0038 13H34.1366C33.1103 13 32.1163 13.2888 31.25 13.7698C32.5857 17.5765 33.7193 20.2857 34.6503 21.8972C35.6793 23.6783 37.4859 26.0581 40.0702 29.0368Z" fill="#00832D"/>
<path d="M50.36 47H29.6404L20.8204 62.267C21.6862 62.7802 22.6805 63.0368 23.7068 63.0368H56.2936C57.32 63.0368 58.3144 62.748 59.1802 62.2668L50.3602 47H50.36Z" fill="#2684FC"/>
<path d="M40.0002 29.0363L31.1802 13.7695C30.314 14.2827 29.5763 14.9882 29.0632 15.8864L12.7698 44.111C12.266 44.9897 12.0007 45.9848 12 46.9977H29.6404L40.0004 29.0363H40.0002Z" fill="#00AC47"/>
<path d="M59.0842 29.9988L50.9373 15.8864C50.4243 14.9882 49.6865 14.2827 48.8204 13.7695L40.0004 29.0365L50.36 46.9979H67.9685C67.9685 46.0034 67.7119 45.0094 67.1987 44.1112L59.0842 29.9988Z" fill="#FFBA00"/>
</g>
<defs>
<clipPath id="clip0_3915_67275">
<rect width="56" height="50.0938" fill="white" transform="translate(12 13)"/>
</clipPath>
</defs>
</svg>
