<svg width="92" height="64" viewBox="0 0 92 64" fill="none" xmlns="http://www.w3.org/2000/svg">
<path d="M33.5869 9C33.5869 9 33.3913 27.5465 33.5869 36.8198V37.6847H36.6678L38.4283 34.9459L41.5091 41L44.7366 35.2342L47.9641 40.5676L50.7515 35.2342L53.2455 37.6847H57.5V9H33.5869Z" fill="#415382" stroke="white" stroke-width="2"/>
<path d="M45.5 18L45.5 27" stroke="white" stroke-linecap="round"/>
<path d="M41 22.5L50 22.5" stroke="white" stroke-linecap="round"/>
<path d="M15.4819 48.888L14.4739 47.028H14.4379V54H13.4539V45.624H14.6179L17.6779 50.736L18.6859 52.596H18.7219V45.624H19.7059V54H18.5419L15.4819 48.888ZM25.6583 52.992H25.6103C25.5463 53.136 25.4663 53.28 25.3703 53.424C25.2823 53.56 25.1703 53.684 25.0343 53.796C24.8983 53.9 24.7343 53.984 24.5423 54.048C24.3503 54.112 24.1263 54.144 23.8703 54.144C23.2303 54.144 22.7223 53.94 22.3463 53.532C21.9703 53.116 21.7823 52.532 21.7823 51.78V47.808H22.7423V51.612C22.7423 52.724 23.2143 53.28 24.1583 53.28C24.3503 53.28 24.5343 53.256 24.7103 53.208C24.8943 53.16 25.0543 53.088 25.1903 52.992C25.3343 52.896 25.4463 52.776 25.5263 52.632C25.6143 52.48 25.6583 52.3 25.6583 52.092V47.808H26.6183V54H25.6583V52.992ZM30.9906 54.144C30.5666 54.144 30.1826 54.068 29.8386 53.916C29.5026 53.764 29.2106 53.548 28.9626 53.268C28.7226 52.98 28.5346 52.64 28.3986 52.248C28.2706 51.848 28.2066 51.4 28.2066 50.904C28.2066 50.416 28.2706 49.972 28.3986 49.572C28.5346 49.172 28.7226 48.832 28.9626 48.552C29.2106 48.264 29.5026 48.044 29.8386 47.892C30.1826 47.74 30.5666 47.664 30.9906 47.664C31.4066 47.664 31.7786 47.74 32.1066 47.892C32.4346 48.044 32.7146 48.256 32.9466 48.528C33.1786 48.792 33.3546 49.108 33.4746 49.476C33.6026 49.844 33.6666 50.248 33.6666 50.688V51.144H29.2146V51.432C29.2146 51.696 29.2546 51.944 29.3346 52.176C29.4226 52.4 29.5426 52.596 29.6946 52.764C29.8546 52.932 30.0466 53.064 30.2706 53.16C30.5026 53.256 30.7626 53.304 31.0506 53.304C31.4426 53.304 31.7826 53.212 32.0706 53.028C32.3666 52.844 32.5946 52.58 32.7546 52.236L33.4386 52.728C33.2386 53.152 32.9266 53.496 32.5026 53.76C32.0786 54.016 31.5746 54.144 30.9906 54.144ZM30.9906 48.468C30.7266 48.468 30.4866 48.516 30.2706 48.612C30.0546 48.7 29.8666 48.828 29.7066 48.996C29.5546 49.164 29.4346 49.364 29.3466 49.596C29.2586 49.82 29.2146 50.068 29.2146 50.34V50.424H32.6346V50.292C32.6346 49.74 32.4826 49.3 32.1786 48.972C31.8826 48.636 31.4866 48.468 30.9906 48.468ZM36.5228 54L34.3508 47.808H35.3108L36.3908 50.88L37.0628 52.992H37.1228L37.7948 50.88L38.8988 47.808H39.8228L37.6388 54H36.5228ZM43.3073 54.144C42.8913 54.144 42.5113 54.068 42.1673 53.916C41.8233 53.764 41.5273 53.548 41.2793 53.268C41.0393 52.98 40.8513 52.64 40.7153 52.248C40.5793 51.848 40.5113 51.4 40.5113 50.904C40.5113 50.416 40.5793 49.972 40.7153 49.572C40.8513 49.172 41.0393 48.832 41.2793 48.552C41.5273 48.264 41.8233 48.044 42.1673 47.892C42.5113 47.74 42.8913 47.664 43.3073 47.664C43.7233 47.664 44.0993 47.74 44.4353 47.892C44.7793 48.044 45.0753 48.264 45.3233 48.552C45.5713 48.832 45.7633 49.172 45.8993 49.572C46.0353 49.972 46.1033 50.416 46.1033 50.904C46.1033 51.4 46.0353 51.848 45.8993 52.248C45.7633 52.64 45.5713 52.98 45.3233 53.268C45.0753 53.548 44.7793 53.764 44.4353 53.916C44.0993 54.068 43.7233 54.144 43.3073 54.144ZM43.3073 53.292C43.8273 53.292 44.2513 53.132 44.5793 52.812C44.9073 52.492 45.0713 52.004 45.0713 51.348V50.46C45.0713 49.804 44.9073 49.316 44.5793 48.996C44.2513 48.676 43.8273 48.516 43.3073 48.516C42.7873 48.516 42.3633 48.676 42.0353 48.996C41.7073 49.316 41.5433 49.804 41.5433 50.46V51.348C41.5433 52.004 41.7073 52.492 42.0353 52.812C42.3633 53.132 42.7873 53.292 43.3073 53.292ZM51.886 54C51.55 54 51.294 53.908 51.118 53.724C50.95 53.532 50.866 53.284 50.866 52.98V48.648H49.846V47.808H50.422C50.63 47.808 50.77 47.768 50.842 47.688C50.922 47.6 50.962 47.452 50.962 47.244V46.092H51.826V47.808H53.182V48.648H51.826V53.16H53.086V54H51.886ZM55.2051 46.356C54.9971 46.356 54.8451 46.308 54.7491 46.212C54.6611 46.108 54.6171 45.976 54.6171 45.816V45.66C54.6171 45.5 54.6611 45.372 54.7491 45.276C54.8451 45.172 54.9971 45.12 55.2051 45.12C55.4131 45.12 55.5611 45.172 55.6491 45.276C55.7451 45.372 55.7931 45.5 55.7931 45.66V45.816C55.7931 45.976 55.7451 46.108 55.6491 46.212C55.5611 46.308 55.4131 46.356 55.2051 46.356ZM54.7251 47.808H55.6851V54H54.7251V47.808ZM60.0291 54.144C59.5971 54.144 59.2091 54.068 58.8651 53.916C58.5211 53.764 58.2291 53.548 57.9891 53.268C57.7571 52.988 57.5771 52.648 57.4491 52.248C57.3291 51.848 57.2691 51.4 57.2691 50.904C57.2691 50.408 57.3291 49.96 57.4491 49.56C57.5771 49.16 57.7571 48.82 57.9891 48.54C58.2291 48.26 58.5211 48.044 58.8651 47.892C59.2091 47.74 59.5971 47.664 60.0291 47.664C60.6451 47.664 61.1371 47.8 61.5051 48.072C61.8811 48.336 62.1611 48.684 62.3451 49.116L61.5411 49.524C61.4291 49.204 61.2451 48.956 60.9891 48.78C60.7331 48.604 60.4131 48.516 60.0291 48.516C59.7411 48.516 59.4891 48.564 59.2731 48.66C59.0571 48.748 58.8771 48.876 58.7331 49.044C58.5891 49.204 58.4811 49.4 58.4091 49.632C58.3371 49.856 58.3011 50.104 58.3011 50.376V51.432C58.3011 51.976 58.4451 52.424 58.7331 52.776C59.0291 53.12 59.4611 53.292 60.0291 53.292C60.8051 53.292 61.3651 52.932 61.7091 52.212L62.4051 52.68C62.2051 53.128 61.9051 53.484 61.5051 53.748C61.1131 54.012 60.6211 54.144 60.0291 54.144ZM63.7602 45.12H64.7202V50.748H64.7682L65.7162 49.692L67.4682 47.808H68.6322L66.3402 50.256L68.8602 54H67.6962L65.6442 50.844L64.7202 51.792V54H63.7602V45.12ZM72.2171 54.144C71.7931 54.144 71.4091 54.068 71.0651 53.916C70.7291 53.764 70.4371 53.548 70.1891 53.268C69.9491 52.98 69.7611 52.64 69.6251 52.248C69.4971 51.848 69.4331 51.4 69.4331 50.904C69.4331 50.416 69.4971 49.972 69.6251 49.572C69.7611 49.172 69.9491 48.832 70.1891 48.552C70.4371 48.264 70.7291 48.044 71.0651 47.892C71.4091 47.74 71.7931 47.664 72.2171 47.664C72.6331 47.664 73.0051 47.74 73.3331 47.892C73.6611 48.044 73.9411 48.256 74.1731 48.528C74.4051 48.792 74.5811 49.108 74.7011 49.476C74.8291 49.844 74.8931 50.248 74.8931 50.688V51.144H70.4411V51.432C70.4411 51.696 70.4811 51.944 70.5611 52.176C70.6491 52.4 70.7691 52.596 70.9211 52.764C71.0811 52.932 71.2731 53.064 71.4971 53.16C71.7291 53.256 71.9891 53.304 72.2771 53.304C72.6691 53.304 73.0091 53.212 73.2971 53.028C73.5931 52.844 73.8211 52.58 73.9811 52.236L74.6651 52.728C74.4651 53.152 74.1531 53.496 73.7291 53.76C73.3051 54.016 72.8011 54.144 72.2171 54.144ZM72.2171 48.468C71.9531 48.468 71.7131 48.516 71.4971 48.612C71.2811 48.7 71.0931 48.828 70.9331 48.996C70.7811 49.164 70.6611 49.364 70.5731 49.596C70.4851 49.82 70.4411 50.068 70.4411 50.34V50.424H73.8611V50.292C73.8611 49.74 73.7091 49.3 73.4051 48.972C73.1091 48.636 72.7131 48.468 72.2171 48.468ZM77.8431 54C77.5071 54 77.2511 53.908 77.0751 53.724C76.9071 53.532 76.8231 53.284 76.8231 52.98V48.648H75.8031V47.808H76.3791C76.5871 47.808 76.7271 47.768 76.7991 47.688C76.8791 47.6 76.9191 47.452 76.9191 47.244V46.092H77.7831V47.808H79.1391V48.648H77.7831V53.16H79.0431V54H77.8431Z" fill="white"/>
</svg>
