<svg width="96" height="64" viewBox="0 0 96 64" fill="none" xmlns="http://www.w3.org/2000/svg">
<rect x="4" width="88" height="64" rx="8" fill="#415382"/>
<path d="M35.5869 9C35.5869 9 35.3913 27.5465 35.5869 36.8198V37.6847H38.6678L40.4283 34.9459L43.5091 41L46.7366 35.2342L49.9641 40.5676L52.7515 35.2342L55.2455 37.6847H59.5V9H35.5869Z" fill="white" stroke="#011A58" stroke-width="2"/>
<path d="M47.5 18L47.5 27" stroke="#011A58" stroke-linecap="round"/>
<path d="M43 22.5L52 22.5" stroke="#011A58" stroke-linecap="round"/>
<path d="M16.189 50.04L15.385 48.36H15.349V54H13.633V45.624H15.625L17.917 49.584L18.721 51.264H18.757V45.624H20.473V54H18.481L16.189 50.04ZM25.9406 52.944H25.8806C25.8246 53.104 25.7486 53.256 25.6526 53.4C25.5646 53.544 25.4486 53.672 25.3046 53.784C25.1606 53.896 24.9886 53.984 24.7886 54.048C24.5966 54.112 24.3726 54.144 24.1166 54.144C23.4686 54.144 22.9766 53.932 22.6406 53.508C22.3126 53.076 22.1486 52.46 22.1486 51.66V47.7H23.9246V51.504C23.9246 51.888 23.9926 52.184 24.1286 52.392C24.2646 52.6 24.4966 52.704 24.8246 52.704C24.9606 52.704 25.0966 52.684 25.2326 52.644C25.3686 52.604 25.4886 52.548 25.5926 52.476C25.6966 52.396 25.7806 52.3 25.8446 52.188C25.9086 52.076 25.9406 51.944 25.9406 51.792V47.7H27.7166V54H25.9406V52.944ZM31.997 54.144C31.517 54.144 31.089 54.068 30.713 53.916C30.337 53.756 30.017 53.536 29.753 53.256C29.497 52.968 29.301 52.62 29.165 52.212C29.037 51.804 28.973 51.348 28.973 50.844C28.973 50.348 29.037 49.9 29.165 49.5C29.293 49.092 29.481 48.744 29.729 48.456C29.985 48.168 30.297 47.948 30.665 47.796C31.033 47.636 31.453 47.556 31.925 47.556C32.445 47.556 32.889 47.644 33.257 47.82C33.633 47.996 33.937 48.232 34.169 48.528C34.409 48.824 34.581 49.168 34.685 49.56C34.797 49.944 34.853 50.348 34.853 50.772V51.3H30.809V51.396C30.809 51.812 30.921 52.144 31.145 52.392C31.369 52.632 31.721 52.752 32.201 52.752C32.569 52.752 32.869 52.68 33.101 52.536C33.333 52.384 33.549 52.204 33.749 51.996L34.637 53.1C34.357 53.428 33.989 53.684 33.533 53.868C33.085 54.052 32.573 54.144 31.997 54.144ZM31.961 48.864C31.601 48.864 31.317 48.984 31.109 49.224C30.909 49.456 30.809 49.768 30.809 50.16V50.256H33.017V50.148C33.017 49.764 32.929 49.456 32.753 49.224C32.585 48.984 32.321 48.864 31.961 48.864ZM37.3341 54L35.2701 47.7H37.0221L37.8021 50.244L38.3901 52.524H38.4861L39.0741 50.244L39.8301 47.7H41.5101L39.4461 54H37.3341ZM44.9094 54.144C44.4454 54.144 44.0294 54.068 43.6614 53.916C43.3014 53.764 42.9934 53.544 42.7374 53.256C42.4894 52.968 42.2974 52.62 42.1614 52.212C42.0254 51.804 41.9574 51.348 41.9574 50.844C41.9574 50.34 42.0254 49.884 42.1614 49.476C42.2974 49.068 42.4894 48.724 42.7374 48.444C42.9934 48.156 43.3014 47.936 43.6614 47.784C44.0294 47.632 44.4454 47.556 44.9094 47.556C45.3734 47.556 45.7854 47.632 46.1454 47.784C46.5134 47.936 46.8214 48.156 47.0694 48.444C47.3254 48.724 47.5214 49.068 47.6574 49.476C47.7934 49.884 47.8614 50.34 47.8614 50.844C47.8614 51.348 47.7934 51.804 47.6574 52.212C47.5214 52.62 47.3254 52.968 47.0694 53.256C46.8214 53.544 46.5134 53.764 46.1454 53.916C45.7854 54.068 45.3734 54.144 44.9094 54.144ZM44.9094 52.74C45.2614 52.74 45.5334 52.632 45.7254 52.416C45.9174 52.2 46.0134 51.892 46.0134 51.492V50.208C46.0134 49.808 45.9174 49.5 45.7254 49.284C45.5334 49.068 45.2614 48.96 44.9094 48.96C44.5574 48.96 44.2854 49.068 44.0934 49.284C43.9014 49.5 43.8054 49.808 43.8054 50.208V51.492C43.8054 51.892 43.9014 52.2 44.0934 52.416C44.2854 52.632 44.5574 52.74 44.9094 52.74ZM54.1708 54C53.5548 54 53.0868 53.844 52.7668 53.532C52.4548 53.22 52.2988 52.764 52.2988 52.164V49.08H51.4108V47.7H51.8548C52.0948 47.7 52.2588 47.644 52.3468 47.532C52.4348 47.412 52.4788 47.244 52.4788 47.028V45.996H54.0748V47.7H55.3228V49.08H54.0748V52.62H55.2268V54H54.1708ZM57.4445 47.028C57.0845 47.028 56.8205 46.948 56.6525 46.788C56.4925 46.62 56.4125 46.408 56.4125 46.152V45.888C56.4125 45.632 56.4925 45.424 56.6525 45.264C56.8205 45.096 57.0845 45.012 57.4445 45.012C57.8045 45.012 58.0645 45.096 58.2245 45.264C58.3925 45.424 58.4765 45.632 58.4765 45.888V46.152C58.4765 46.408 58.3925 46.62 58.2245 46.788C58.0645 46.948 57.8045 47.028 57.4445 47.028ZM56.5565 47.7H58.3325V54H56.5565V47.7ZM62.5341 54.144C62.0621 54.144 61.6421 54.068 61.2741 53.916C60.9061 53.756 60.5981 53.536 60.3501 53.256C60.1021 52.968 59.9141 52.62 59.7861 52.212C59.6581 51.804 59.5941 51.348 59.5941 50.844C59.5941 50.34 59.6581 49.888 59.7861 49.488C59.9141 49.08 60.1021 48.732 60.3501 48.444C60.5981 48.156 60.9061 47.936 61.2741 47.784C61.6421 47.632 62.0621 47.556 62.5341 47.556C63.1741 47.556 63.7061 47.7 64.1301 47.988C64.5621 48.276 64.8701 48.68 65.0541 49.2L63.6141 49.824C63.5581 49.584 63.4421 49.38 63.2661 49.212C63.0901 49.044 62.8461 48.96 62.5341 48.96C62.1741 48.96 61.9021 49.08 61.7181 49.32C61.5341 49.552 61.4421 49.868 61.4421 50.268V51.444C61.4421 51.844 61.5341 52.16 61.7181 52.392C61.9021 52.624 62.1741 52.74 62.5341 52.74C62.8541 52.74 63.1061 52.656 63.2901 52.488C63.4821 52.312 63.6221 52.084 63.7101 51.804L65.0901 52.404C64.8821 53.004 64.5581 53.444 64.1181 53.724C63.6861 54.004 63.1581 54.144 62.5341 54.144ZM66.1893 45.12H67.9653V50.364H68.0373L68.8173 49.2L70.0773 47.7H72.0453L69.9453 50.112L72.2853 54H70.1733L68.7573 51.336L67.9653 52.224V54H66.1893V45.12ZM75.415 54.144C74.935 54.144 74.507 54.068 74.131 53.916C73.755 53.756 73.435 53.536 73.171 53.256C72.915 52.968 72.719 52.62 72.583 52.212C72.455 51.804 72.391 51.348 72.391 50.844C72.391 50.348 72.455 49.9 72.583 49.5C72.711 49.092 72.899 48.744 73.147 48.456C73.403 48.168 73.715 47.948 74.083 47.796C74.451 47.636 74.871 47.556 75.343 47.556C75.863 47.556 76.307 47.644 76.675 47.82C77.051 47.996 77.355 48.232 77.587 48.528C77.827 48.824 77.999 49.168 78.103 49.56C78.215 49.944 78.271 50.348 78.271 50.772V51.3H74.227V51.396C74.227 51.812 74.339 52.144 74.563 52.392C74.787 52.632 75.139 52.752 75.619 52.752C75.987 52.752 76.287 52.68 76.519 52.536C76.751 52.384 76.967 52.204 77.167 51.996L78.055 53.1C77.775 53.428 77.407 53.684 76.951 53.868C76.503 54.052 75.991 54.144 75.415 54.144ZM75.379 48.864C75.019 48.864 74.735 48.984 74.527 49.224C74.327 49.456 74.227 49.768 74.227 50.16V50.256H76.435V50.148C76.435 49.764 76.347 49.456 76.171 49.224C76.003 48.984 75.739 48.864 75.379 48.864ZM81.7333 54C81.1173 54 80.6493 53.844 80.3293 53.532C80.0173 53.22 79.8613 52.764 79.8613 52.164V49.08H78.9733V47.7H79.4173C79.6573 47.7 79.8213 47.644 79.9093 47.532C79.9973 47.412 80.0413 47.244 80.0413 47.028V45.996H81.6373V47.7H82.8853V49.08H81.6373V52.62H82.7893V54H81.7333Z" fill="white"/>
</svg>
