<svg width="88" height="64" viewBox="0 0 88 64" fill="none" xmlns="http://www.w3.org/2000/svg">
<rect width="88" height="64" rx="8" fill="#415382"/>
<g clip-path="url(#clip0_4329_6613)">
<path d="M43.987 17.0769L44.4234 17.5H45.0312H57.4062C58.3303 17.5 59 18.2147 59 19V33C59 33.7853 58.3303 34.5 57.4062 34.5H30.5938C29.6697 34.5 29 33.7853 29 33V15C29 14.2147 29.6697 13.5 30.5938 13.5H40.2984L43.987 17.0769Z" fill="white" stroke="#011A58" stroke-width="3"/>
</g>
<path d="M19.1348 53L18.5348 51.008H15.7388L15.1388 53H13.2908L16.0508 44.624H18.3068L21.0308 53H19.1348ZM17.1548 46.28H17.0948L16.1708 49.46H18.0908L17.1548 46.28ZM22.0936 53V46.7H23.8696V48.068H23.9296C23.9616 47.892 24.0176 47.724 24.0976 47.564C24.1776 47.396 24.2816 47.248 24.4096 47.12C24.5456 46.992 24.7056 46.892 24.8896 46.82C25.0736 46.74 25.2896 46.7 25.5376 46.7H25.8496V48.356H25.4056C24.8856 48.356 24.4976 48.424 24.2416 48.56C23.9936 48.696 23.8696 48.948 23.8696 49.316V53H22.0936ZM29.4306 53.144C28.9586 53.144 28.5386 53.068 28.1706 52.916C27.8026 52.756 27.4946 52.536 27.2466 52.256C26.9986 51.968 26.8106 51.62 26.6826 51.212C26.5546 50.804 26.4906 50.348 26.4906 49.844C26.4906 49.34 26.5546 48.888 26.6826 48.488C26.8106 48.08 26.9986 47.732 27.2466 47.444C27.4946 47.156 27.8026 46.936 28.1706 46.784C28.5386 46.632 28.9586 46.556 29.4306 46.556C30.0706 46.556 30.6026 46.7 31.0266 46.988C31.4586 47.276 31.7666 47.68 31.9506 48.2L30.5106 48.824C30.4546 48.584 30.3386 48.38 30.1626 48.212C29.9866 48.044 29.7426 47.96 29.4306 47.96C29.0706 47.96 28.7986 48.08 28.6146 48.32C28.4306 48.552 28.3386 48.868 28.3386 49.268V50.444C28.3386 50.844 28.4306 51.16 28.6146 51.392C28.7986 51.624 29.0706 51.74 29.4306 51.74C29.7506 51.74 30.0026 51.656 30.1866 51.488C30.3786 51.312 30.5186 51.084 30.6066 50.804L31.9866 51.404C31.7786 52.004 31.4546 52.444 31.0146 52.724C30.5826 53.004 30.0546 53.144 29.4306 53.144ZM33.0858 44.12H34.8618V47.768H34.9338C35.0458 47.44 35.2418 47.156 35.5218 46.916C35.8018 46.676 36.1898 46.556 36.6858 46.556C37.3338 46.556 37.8218 46.772 38.1498 47.204C38.4858 47.636 38.6538 48.252 38.6538 49.052V53H36.8778V49.196C36.8778 48.788 36.8138 48.488 36.6858 48.296C36.5578 48.096 36.3298 47.996 36.0018 47.996C35.8578 47.996 35.7178 48.016 35.5818 48.056C35.4458 48.088 35.3218 48.144 35.2098 48.224C35.1058 48.304 35.0218 48.404 34.9578 48.524C34.8938 48.636 34.8618 48.768 34.8618 48.92V53H33.0858V44.12ZM41.1223 46.028C40.7623 46.028 40.4983 45.948 40.3303 45.788C40.1703 45.62 40.0903 45.408 40.0903 45.152V44.888C40.0903 44.632 40.1703 44.424 40.3303 44.264C40.4983 44.096 40.7623 44.012 41.1223 44.012C41.4823 44.012 41.7423 44.096 41.9023 44.264C42.0703 44.424 42.1543 44.632 42.1543 44.888V45.152C42.1543 45.408 42.0703 45.62 41.9023 45.788C41.7423 45.948 41.4823 46.028 41.1223 46.028ZM40.2343 46.7H42.0103V53H40.2343V46.7ZM45.0118 53L42.9478 46.7H44.6998L45.4798 49.244L46.0678 51.524H46.1638L46.7518 49.244L47.5078 46.7H49.1878L47.1238 53H45.0118ZM54.6754 53C54.3554 53 54.0874 52.9 53.8714 52.7C53.6634 52.5 53.5314 52.232 53.4754 51.896H53.4034C53.3074 52.304 53.0954 52.616 52.7674 52.832C52.4394 53.04 52.0354 53.144 51.5554 53.144C50.9234 53.144 50.4394 52.976 50.1034 52.64C49.7674 52.304 49.5994 51.86 49.5994 51.308C49.5994 50.644 49.8394 50.152 50.3194 49.832C50.8074 49.504 51.4674 49.34 52.2994 49.34H53.2954V48.944C53.2954 48.64 53.2154 48.4 53.0554 48.224C52.8954 48.04 52.6274 47.948 52.2514 47.948C51.8994 47.948 51.6194 48.024 51.4114 48.176C51.2034 48.328 51.0314 48.5 50.8954 48.692L49.8394 47.756C50.0954 47.38 50.4154 47.088 50.7994 46.88C51.1914 46.664 51.7194 46.556 52.3834 46.556C53.2794 46.556 53.9514 46.752 54.3994 47.144C54.8474 47.536 55.0714 48.108 55.0714 48.86V51.62H55.6594V53H54.6754ZM52.2154 51.908C52.5114 51.908 52.7634 51.844 52.9714 51.716C53.1874 51.588 53.2954 51.38 53.2954 51.092V50.348H52.4314C51.7354 50.348 51.3874 50.584 51.3874 51.056V51.236C51.3874 51.468 51.4594 51.64 51.6034 51.752C51.7474 51.856 51.9514 51.908 52.2154 51.908ZM60.7154 51.944H60.6554C60.6074 52.112 60.5314 52.272 60.4274 52.424C60.3234 52.568 60.1954 52.696 60.0434 52.808C59.8994 52.912 59.7314 52.992 59.5394 53.048C59.3554 53.112 59.1634 53.144 58.9634 53.144C58.1634 53.144 57.5594 52.864 57.1514 52.304C56.7434 51.736 56.5394 50.916 56.5394 49.844C56.5394 48.772 56.7434 47.956 57.1514 47.396C57.5594 46.836 58.1634 46.556 58.9634 46.556C59.3714 46.556 59.7314 46.668 60.0434 46.892C60.3634 47.116 60.5674 47.404 60.6554 47.756H60.7154V44.12H62.4914V53H60.7154V51.944ZM59.5514 51.704C59.8874 51.704 60.1634 51.624 60.3794 51.464C60.6034 51.296 60.7154 51.068 60.7154 50.78V48.92C60.7154 48.632 60.6034 48.408 60.3794 48.248C60.1634 48.08 59.8874 47.996 59.5514 47.996C59.2154 47.996 58.9354 48.116 58.7114 48.356C58.4954 48.588 58.3874 48.904 58.3874 49.304V50.396C58.3874 50.796 58.4954 51.116 58.7114 51.356C58.9354 51.588 59.2154 51.704 59.5514 51.704ZM66.7082 53.144C66.2442 53.144 65.8282 53.068 65.4602 52.916C65.1002 52.764 64.7922 52.544 64.5362 52.256C64.2882 51.968 64.0962 51.62 63.9602 51.212C63.8242 50.804 63.7562 50.348 63.7562 49.844C63.7562 49.34 63.8242 48.884 63.9602 48.476C64.0962 48.068 64.2882 47.724 64.5362 47.444C64.7922 47.156 65.1002 46.936 65.4602 46.784C65.8282 46.632 66.2442 46.556 66.7082 46.556C67.1722 46.556 67.5842 46.632 67.9442 46.784C68.3122 46.936 68.6202 47.156 68.8682 47.444C69.1242 47.724 69.3202 48.068 69.4562 48.476C69.5922 48.884 69.6602 49.34 69.6602 49.844C69.6602 50.348 69.5922 50.804 69.4562 51.212C69.3202 51.62 69.1242 51.968 68.8682 52.256C68.6202 52.544 68.3122 52.764 67.9442 52.916C67.5842 53.068 67.1722 53.144 66.7082 53.144ZM66.7082 51.74C67.0602 51.74 67.3322 51.632 67.5242 51.416C67.7162 51.2 67.8122 50.892 67.8122 50.492V49.208C67.8122 48.808 67.7162 48.5 67.5242 48.284C67.3322 48.068 67.0602 47.96 66.7082 47.96C66.3562 47.96 66.0842 48.068 65.8922 48.284C65.7002 48.5 65.6042 48.808 65.6042 49.208V50.492C65.6042 50.892 65.7002 51.2 65.8922 51.416C66.0842 51.632 66.3562 51.74 66.7082 51.74ZM70.9257 53V46.7H72.7017V48.068H72.7617C72.7937 47.892 72.8497 47.724 72.9297 47.564C73.0097 47.396 73.1137 47.248 73.2417 47.12C73.3777 46.992 73.5377 46.892 73.7217 46.82C73.9057 46.74 74.1217 46.7 74.3697 46.7H74.6817V48.356H74.2377C73.7177 48.356 73.3297 48.424 73.0737 48.56C72.8257 48.696 72.7017 48.948 72.7017 49.316V53H70.9257Z" fill="white"/>
<defs>
<clipPath id="clip0_4329_6613">
<rect width="33" height="32" fill="white" transform="translate(27.5 8)"/>
</clipPath>
</defs>
</svg>
